%FSTAX23Y23*%
%MOMM*%
%SFA1B1*%

%IPPOS*%
%AMD22*
4,1,8,-0.292100,0.701040,-0.701040,0.292100,-0.701040,-0.292100,-0.292100,-0.701040,0.292100,-0.701040,0.701040,-0.292100,0.701040,0.292100,0.292100,0.701040,-0.292100,0.701040,0.0*
%
%ADD19C,0.253999*%
%ADD20R,1.399997X1.399997*%
%ADD21C,1.399997*%
G04~CAMADD=22~4~0.0~0.0~551.2~551.2~0.0~161.4~0~0.0~0.0~0.0~0.0~0~0.0~0.0~0.0~0.0~0~0.0~0.0~0.0~45.0~551.2~551.2*
%ADD22D22*%
%ADD23C,1.499997*%
%ADD24R,1.499997X1.499997*%
%ADD25C,1.349997*%
%ADD26R,1.349997X1.349997*%
%ADD27R,1.549997X1.549997*%
%ADD28C,1.549997*%
%ADD29C,1.599997*%
%ADD30R,1.599997X1.599997*%
%ADD31C,1.269997*%
%LNpcb1-1*%
%LPD*%
G36*
X100076Y0D02*
X0D01*
Y68072*
X100076*
Y0*
G37*
%LNpcb1-2*%
%LPC*%
G36*
X03937Y36005D02*
X03109D01*
Y35179*
X03937*
Y36005*
G37*
G36*
X05017Y34925D02*
X04191D01*
Y34097*
X05017*
Y34925*
G37*
G36*
X03937D02*
X03109D01*
Y34097*
X03937*
Y34925*
G37*
G36*
X05017Y36005D02*
X04191D01*
Y35179*
X05017*
Y36005*
G37*
G36*
X04064Y38554D02*
X03814Y38521D01*
X03582Y38425*
X03383Y38272*
X0323Y38073*
X03134Y3784*
X03101Y37592*
X03134Y37342*
X0323Y3711*
X03383Y36911*
X03582Y36758*
X03814Y36662*
X04064Y36629*
X04312Y36662*
X04545Y36758*
X04744Y36911*
X04897Y3711*
X04993Y37342*
X05026Y37592*
X04993Y3784*
X04897Y38073*
X04744Y38272*
X04545Y38425*
X04312Y38521*
X04064Y38554*
G37*
G36*
X98235Y36957D02*
X97409D01*
Y36129*
X98235*
Y36957*
G37*
G36*
X97155D02*
X96327D01*
Y36129*
X97155*
Y36957*
G37*
G36*
X97282Y3195D02*
X97032Y31917D01*
X968Y31821*
X96601Y31668*
X96448Y31469*
X96352Y31236*
X96319Y30988*
X96352Y30738*
X96448Y30506*
X96601Y30307*
X968Y30154*
X97032Y30058*
X97282Y30025*
X9753Y30058*
X97763Y30154*
X97962Y30307*
X98115Y30506*
X98211Y30738*
X98244Y30988*
X98211Y31236*
X98115Y31469*
X97962Y31668*
X97763Y31821*
X9753Y31917*
X97282Y3195*
G37*
G36*
X0381Y27632D02*
X0356Y27599D01*
X03328Y27503*
X03129Y2735*
X02976Y27151*
X0288Y26918*
X02847Y2667*
X0288Y2642*
X02976Y26188*
X03129Y25989*
X03328Y25836*
X0356Y2574*
X0381Y25707*
X04058Y2574*
X04291Y25836*
X0449Y25989*
X04643Y26188*
X04739Y2642*
X04772Y2667*
X04739Y26918*
X04643Y27151*
X0449Y2735*
X04291Y27503*
X04058Y27599*
X0381Y27632*
G37*
G36*
X98235Y25781D02*
X97409D01*
Y24953*
X98235*
Y25781*
G37*
G36*
X97155D02*
X96327D01*
Y24953*
X97155*
Y25781*
G37*
G36*
Y26861D02*
X96327D01*
Y26035*
X97155*
Y26861*
G37*
G36*
X0381Y30172D02*
X0356Y30139D01*
X03328Y30043*
X03129Y2989*
X02976Y29691*
X0288Y29458*
X02847Y2921*
X0288Y2896*
X02976Y28728*
X03129Y28529*
X03328Y28376*
X0356Y2828*
X0381Y28247*
X04058Y2828*
X04291Y28376*
X0449Y28529*
X04643Y28728*
X04739Y2896*
X04772Y2921*
X04739Y29458*
X04643Y29691*
X0449Y2989*
X04291Y30043*
X04058Y30139*
X0381Y30172*
G37*
G36*
X97282Y2941D02*
X97032Y29377D01*
X968Y29281*
X96601Y29128*
X96448Y28929*
X96352Y28696*
X96319Y28448*
X96352Y28198*
X96448Y27966*
X96601Y27767*
X968Y27614*
X97032Y27518*
X97282Y27485*
X9753Y27518*
X97763Y27614*
X97962Y27767*
X98115Y27966*
X98211Y28198*
X98244Y28448*
X98211Y28696*
X98115Y28929*
X97962Y29128*
X97763Y29281*
X9753Y29377*
X97282Y2941*
G37*
G36*
X98235Y26861D02*
X97409D01*
Y26035*
X98235*
Y26861*
G37*
G36*
X05017Y45847D02*
X04191D01*
Y45019*
X05017*
Y45847*
G37*
G36*
X03937D02*
X03109D01*
Y45019*
X03937*
Y45847*
G37*
G36*
X23485Y44831D02*
X22733D01*
Y44077*
X22838Y44091*
X23054Y44181*
X23239Y44323*
X23382Y44509*
X23472Y44725*
X23485Y44831*
G37*
G36*
X22479Y45837D02*
X22373Y45824D01*
X22157Y45734*
X21971Y45591*
X21829Y45406*
X21739Y4519*
X21725Y45085*
X22479*
Y45837*
G37*
G36*
X05017Y46927D02*
X04191D01*
Y46101*
X05017*
Y46927*
G37*
G36*
X03937D02*
X03109D01*
Y46101*
X03937*
Y46927*
G37*
G36*
X22733Y45837D02*
Y45085D01*
X23485*
X23472Y4519*
X23382Y45406*
X23239Y45591*
X23054Y45734*
X22838Y45824*
X22733Y45837*
G37*
G36*
X22479Y44831D02*
X21725D01*
X21739Y44725*
X21829Y44509*
X21971Y44323*
X22157Y44181*
X22373Y44091*
X22479Y44077*
Y44831*
G37*
G36*
X97282Y40586D02*
X97032Y40553D01*
X968Y40457*
X96601Y40304*
X96448Y40105*
X96352Y39872*
X96319Y39624*
X96352Y39374*
X96448Y39142*
X96601Y38943*
X968Y3879*
X97032Y38694*
X97282Y38661*
X9753Y38694*
X97763Y3879*
X97962Y38943*
X98115Y39142*
X98211Y39374*
X98244Y39624*
X98211Y39872*
X98115Y40105*
X97962Y40304*
X97763Y40457*
X9753Y40553*
X97282Y40586*
G37*
G36*
X98235Y38037D02*
X97409D01*
Y37211*
X98235*
Y38037*
G37*
G36*
X97155D02*
X96327D01*
Y37211*
X97155*
Y38037*
G37*
G36*
X04064Y41094D02*
X03814Y41061D01*
X03582Y40965*
X03383Y40812*
X0323Y40613*
X03134Y4038*
X03101Y40132*
X03134Y39882*
X0323Y3965*
X03383Y39451*
X03582Y39298*
X03814Y39202*
X04064Y39169*
X04312Y39202*
X04545Y39298*
X04744Y39451*
X04897Y3965*
X04993Y39882*
X05026Y40132*
X04993Y4038*
X04897Y40613*
X04744Y40812*
X04545Y40965*
X04312Y41061*
X04064Y41094*
G37*
G36*
X9271Y47124D02*
X7874D01*
X78591Y47094*
X78465Y4701*
X76491Y45037*
X76432Y45062*
X762Y45092*
X75967Y45062*
X75751Y44972*
X75565Y44829*
X75423Y44644*
X75333Y44428*
X75303Y44196*
X75333Y43963*
X75423Y43747*
X75565Y43561*
X75751Y43419*
X75967Y43329*
X762Y43299*
X76432Y43329*
X76648Y43419*
X76833Y43561*
X76976Y43747*
X77066Y43963*
X77096Y44196*
X77066Y44428*
X77041Y44487*
X789Y46347*
X92549*
X9639Y42505*
X96352Y42412*
X96319Y42164*
X96352Y41914*
X96448Y41682*
X96601Y41483*
X968Y4133*
X97032Y41234*
X97282Y41201*
X9753Y41234*
X97763Y4133*
X97962Y41483*
X98115Y41682*
X98211Y41914*
X98244Y42164*
X98211Y42412*
X98115Y42645*
X97962Y42844*
X97763Y42997*
X9753Y43093*
X97282Y43126*
X97032Y43093*
X9694Y43055*
X92984Y4701*
X92858Y47094*
X9271Y47124*
G37*
G36*
X23944Y41085D02*
X2299D01*
X22513Y40608*
Y39654*
X2299Y39177*
X23944*
X24421Y39654*
Y40608*
X23944Y41085*
G37*
G36*
X28347Y41094D02*
X28098Y41061D01*
X27866Y40965*
X27667Y40812*
X27514Y40613*
X27418Y4038*
X27385Y40132*
X27418Y39882*
X27514Y3965*
X27667Y39451*
X27866Y39298*
X28098Y39202*
X28347Y39169*
X28596Y39202*
X28829Y39298*
X29028Y39451*
X29181Y3965*
X29277Y39882*
X2931Y40132*
X29277Y4038*
X29181Y40613*
X29028Y40812*
X28829Y40965*
X28596Y41061*
X28347Y41094*
G37*
G36*
X04763Y25083D02*
X03937D01*
Y24257*
X04763*
Y25083*
G37*
G36*
X97155Y14605D02*
X96327D01*
Y13777*
X97155*
Y14605*
G37*
G36*
X04763Y14161D02*
X03937D01*
Y13335*
X04763*
Y14161*
G37*
G36*
X03683D02*
X02855D01*
Y13335*
X03683*
Y14161*
G37*
G36*
X98235Y14605D02*
X97409D01*
Y13777*
X98235*
Y14605*
G37*
G36*
Y15685D02*
X97409D01*
Y14859*
X98235*
Y15685*
G37*
G36*
X97155D02*
X96327D01*
Y14859*
X97155*
Y15685*
G37*
G36*
X0381Y1671D02*
X0356Y16677D01*
X03328Y16581*
X03129Y16428*
X02976Y16229*
X0288Y15996*
X02847Y15748*
X0288Y15498*
X02976Y15266*
X03129Y15067*
X03328Y14914*
X0356Y14818*
X0381Y14785*
X04058Y14818*
X04291Y14914*
X0449Y15067*
X04643Y15266*
X04739Y15498*
X04772Y15748*
X04739Y15996*
X04643Y16229*
X0449Y16428*
X04291Y16581*
X04058Y16677*
X0381Y1671*
G37*
G36*
X04763Y13081D02*
X03937D01*
Y12253*
X04763*
Y13081*
G37*
G36*
X97155Y04763D02*
X96327D01*
Y03937*
X97155*
Y04763*
G37*
G36*
X98235Y03683D02*
X97409D01*
Y02855*
X98235*
Y03683*
G37*
G36*
X97155D02*
X96327D01*
Y02855*
X97155*
Y03683*
G37*
G36*
X98235Y04763D02*
X97409D01*
Y03937*
X98235*
Y04763*
G37*
G36*
X03683Y13081D02*
X02855D01*
Y12253*
X03683*
Y13081*
G37*
G36*
X97282Y09852D02*
X97032Y09819D01*
X968Y09723*
X96601Y0957*
X96448Y09371*
X96352Y09138*
X96319Y0889*
X96352Y0864*
X96448Y08408*
X96601Y08209*
X968Y08056*
X97032Y0796*
X97282Y07927*
X9753Y0796*
X97763Y08056*
X97962Y08209*
X98115Y08408*
X98211Y0864*
X98244Y0889*
X98211Y09138*
X98115Y09371*
X97962Y0957*
X97763Y09723*
X9753Y09819*
X97282Y09852*
G37*
G36*
Y07312D02*
X97032Y07279D01*
X968Y07183*
X96601Y0703*
X96448Y06831*
X96352Y06598*
X96319Y0635*
X96352Y061*
X96448Y05868*
X96601Y05669*
X968Y05516*
X97032Y0542*
X97282Y05387*
X9753Y0542*
X97763Y05516*
X97962Y05669*
X98115Y05868*
X98211Y061*
X98244Y0635*
X98211Y06598*
X98115Y06831*
X97962Y0703*
X97763Y07183*
X9753Y07279*
X97282Y07312*
G37*
G36*
X03683Y24003D02*
X02855D01*
Y23175*
X03683*
Y24003*
G37*
G36*
X54361Y23495D02*
X53467D01*
Y226*
X53608Y22619*
X53858Y22723*
X54073Y22888*
X54238Y23103*
X54342Y23353*
X54361Y23495*
G37*
G36*
X53213D02*
X52318D01*
X52337Y23353*
X52441Y23103*
X52606Y22888*
X52821Y22723*
X53071Y22619*
X53213Y226*
Y23495*
G37*
G36*
X04763Y24003D02*
X03937D01*
Y23175*
X04763*
Y24003*
G37*
G36*
X03683Y25083D02*
X02855D01*
Y24257*
X03683*
Y25083*
G37*
G36*
X53467Y24643D02*
Y23749D01*
X54361*
X54342Y2389*
X54238Y2414*
X54073Y24355*
X53858Y2452*
X53608Y24624*
X53467Y24643*
G37*
G36*
X53213D02*
X53071Y24624D01*
X52821Y2452*
X52606Y24355*
X52441Y2414*
X52337Y2389*
X52318Y23749*
X53213*
Y24643*
G37*
G36*
X41668Y2465D02*
X3961D01*
Y22592*
X41668*
Y2465*
G37*
G36*
X97282Y20774D02*
X97032Y20741D01*
X968Y20645*
X96601Y20492*
X96448Y20293*
X96352Y2006*
X96319Y19812*
X96352Y19562*
X96448Y1933*
X96601Y19131*
X968Y18978*
X97032Y18882*
X97282Y18849*
X9753Y18882*
X97763Y18978*
X97962Y19131*
X98115Y1933*
X98211Y19562*
X98244Y19812*
X98211Y2006*
X98115Y20293*
X97962Y20492*
X97763Y20645*
X9753Y20741*
X97282Y20774*
G37*
G36*
X0381Y1925D02*
X0356Y19217D01*
X03328Y19121*
X03129Y18968*
X02976Y18769*
X0288Y18536*
X02847Y18288*
X0288Y18038*
X02976Y17806*
X03129Y17607*
X03328Y17454*
X0356Y17358*
X0381Y17325*
X04058Y17358*
X04291Y17454*
X0449Y17607*
X04643Y17806*
X04739Y18038*
X04772Y18288*
X04739Y18536*
X04643Y18769*
X0449Y18968*
X04291Y19121*
X04058Y19217*
X0381Y1925*
G37*
G36*
X97282Y18234D02*
X97032Y18201D01*
X968Y18105*
X96601Y17952*
X96448Y17753*
X96352Y1752*
X96319Y17272*
X96352Y17022*
X96448Y1679*
X96601Y16591*
X968Y16438*
X97032Y16342*
X97282Y16309*
X9753Y16342*
X97763Y16438*
X97962Y16591*
X98115Y1679*
X98211Y17022*
X98244Y17272*
X98211Y1752*
X98115Y17753*
X97962Y17952*
X97763Y18105*
X9753Y18201*
X97282Y18234*
G37*
G36*
X4318Y24659D02*
X42911Y24624D01*
X42661Y2452*
X42446Y24355*
X42281Y2414*
X42177Y2389*
X42142Y23622*
X42177Y23353*
X42281Y23103*
X42446Y22888*
X42661Y22723*
X42911Y22619*
X4318Y22584*
X43448Y22619*
X43698Y22723*
X43913Y22888*
X44078Y23103*
X44182Y23353*
X44217Y23622*
X44182Y2389*
X44078Y2414*
X43913Y24355*
X43698Y2452*
X43448Y24624*
X4318Y24659*
G37*
G36*
X508D02*
X50531Y24624D01*
X50281Y2452*
X50066Y24355*
X49901Y2414*
X49797Y2389*
X49762Y23622*
X49797Y23353*
X49901Y23103*
X50066Y22888*
X50281Y22723*
X50531Y22619*
X508Y22584*
X51068Y22619*
X51318Y22723*
X51533Y22888*
X51698Y23103*
X51802Y23353*
X51837Y23622*
X51802Y2389*
X51698Y2414*
X51533Y24355*
X51318Y2452*
X51068Y24624*
X508Y24659*
G37*
G36*
X4826D02*
X47991Y24624D01*
X47741Y2452*
X47526Y24355*
X47361Y2414*
X47257Y2389*
X47222Y23622*
X47257Y23353*
X47361Y23103*
X47526Y22888*
X47741Y22723*
X47991Y22619*
X4826Y22584*
X48528Y22619*
X48778Y22723*
X48993Y22888*
X49158Y23103*
X49262Y23353*
X49297Y23622*
X49262Y2389*
X49158Y2414*
X48993Y24355*
X48778Y2452*
X48528Y24624*
X4826Y24659*
G37*
G36*
X4572D02*
X45451Y24624D01*
X45201Y2452*
X44986Y24355*
X44821Y2414*
X44717Y2389*
X44682Y23622*
X44717Y23353*
X44821Y23103*
X44986Y22888*
X45201Y22723*
X45451Y22619*
X4572Y22584*
X45988Y22619*
X46238Y22723*
X46453Y22888*
X46618Y23103*
X46722Y23353*
X46757Y23622*
X46722Y2389*
X46618Y2414*
X46453Y24355*
X46238Y2452*
X45988Y24624*
X4572Y24659*
G37*
G36*
X46482Y63521D02*
X46213Y63486D01*
X45963Y63382*
X45748Y63217*
X45583Y63002*
X45479Y62752*
X45444Y62484*
X45479Y62215*
X45583Y61965*
X45748Y6175*
X45963Y61585*
X46213Y61481*
X46482Y61446*
X4675Y61481*
X47Y61585*
X47215Y6175*
X4738Y61965*
X47484Y62215*
X47519Y62484*
X47484Y62752*
X4738Y63002*
X47215Y63217*
X47Y63382*
X4675Y63486*
X46482Y63521*
G37*
G36*
X43942D02*
X43673Y63486D01*
X43423Y63382*
X43208Y63217*
X43043Y63002*
X42939Y62752*
X42904Y62484*
X42939Y62215*
X43043Y61965*
X43208Y6175*
X43423Y61585*
X43673Y61481*
X43942Y61446*
X4421Y61481*
X4446Y61585*
X44675Y6175*
X4484Y61965*
X44944Y62215*
X44979Y62484*
X44944Y62752*
X4484Y63002*
X44675Y63217*
X4446Y63382*
X4421Y63486*
X43942Y63521*
G37*
G36*
X41402D02*
X41133Y63486D01*
X40883Y63382*
X40668Y63217*
X40503Y63002*
X40399Y62752*
X40364Y62484*
X40399Y62215*
X40503Y61965*
X40668Y6175*
X40883Y61585*
X41133Y61481*
X41402Y61446*
X4167Y61481*
X4192Y61585*
X42135Y6175*
X423Y61965*
X42404Y62215*
X42439Y62484*
X42404Y62752*
X423Y63002*
X42135Y63217*
X4192Y63382*
X4167Y63486*
X41402Y63521*
G37*
G36*
X49022D02*
X48753Y63486D01*
X48503Y63382*
X48288Y63217*
X48123Y63002*
X48019Y62752*
X47984Y62484*
X48019Y62215*
X48123Y61965*
X48288Y6175*
X48503Y61585*
X48753Y61481*
X49022Y61446*
X4929Y61481*
X4954Y61585*
X49755Y6175*
X4992Y61965*
X50024Y62215*
X50059Y62484*
X50024Y62752*
X4992Y63002*
X49755Y63217*
X4954Y63382*
X4929Y63486*
X49022Y63521*
G37*
G36*
X56642D02*
X56373Y63486D01*
X56123Y63382*
X55908Y63217*
X55743Y63002*
X55639Y62752*
X55604Y62484*
X55639Y62215*
X55743Y61965*
X55908Y6175*
X56123Y61585*
X56373Y61481*
X56642Y61446*
X5691Y61481*
X5716Y61585*
X57375Y6175*
X5754Y61965*
X57644Y62215*
X57679Y62484*
X57644Y62752*
X5754Y63002*
X57375Y63217*
X5716Y63382*
X5691Y63486*
X56642Y63521*
G37*
G36*
X54102D02*
X53833Y63486D01*
X53583Y63382*
X53368Y63217*
X53203Y63002*
X53099Y62752*
X53064Y62484*
X53099Y62215*
X53203Y61965*
X53368Y6175*
X53583Y61585*
X53833Y61481*
X54102Y61446*
X5437Y61481*
X5462Y61585*
X54835Y6175*
X55Y61965*
X55104Y62215*
X55139Y62484*
X55104Y62752*
X55Y63002*
X54835Y63217*
X5462Y63382*
X5437Y63486*
X54102Y63521*
G37*
G36*
X51562D02*
X51293Y63486D01*
X51043Y63382*
X50828Y63217*
X50663Y63002*
X50559Y62752*
X50524Y62484*
X50559Y62215*
X50663Y61965*
X50828Y6175*
X51043Y61585*
X51293Y61481*
X51562Y61446*
X5183Y61481*
X5208Y61585*
X52295Y6175*
X5246Y61965*
X52564Y62215*
X52599Y62484*
X52564Y62752*
X5246Y63002*
X52295Y63217*
X5208Y63382*
X5183Y63486*
X51562Y63521*
G37*
G36*
X38862D02*
X38593Y63486D01*
X38343Y63382*
X38128Y63217*
X37963Y63002*
X37859Y62752*
X37824Y62484*
X37859Y62215*
X37963Y61965*
X38128Y6175*
X38343Y61585*
X38593Y61481*
X38862Y61446*
X3913Y61481*
X3938Y61585*
X39595Y6175*
X3976Y61965*
X39864Y62215*
X39899Y62484*
X39864Y62752*
X3976Y63002*
X39595Y63217*
X3938Y63382*
X3913Y63486*
X38862Y63521*
G37*
G36*
X03937Y62103D02*
X03118D01*
X03134Y6198*
X0323Y61748*
X03383Y61549*
X03582Y61396*
X03814Y613*
X03937Y61284*
Y62103*
G37*
G36*
X32778Y6148D02*
X31877D01*
Y60579*
X32778*
Y6148*
G37*
G36*
X31623D02*
X3072D01*
Y60579*
X31623*
Y6148*
G37*
G36*
X05009Y62103D02*
X04191D01*
Y61284*
X04312Y613*
X04545Y61396*
X04744Y61549*
X04897Y61748*
X04993Y6198*
X05009Y62103*
G37*
G36*
X91978Y62357D02*
X91059D01*
Y61437*
X91207Y61457*
X91463Y61563*
X91683Y61732*
X91852Y61952*
X91958Y62208*
X91978Y62357*
G37*
G36*
X90805D02*
X89885D01*
X89905Y62208*
X90011Y61952*
X9018Y61732*
X904Y61563*
X90656Y61457*
X90805Y61437*
Y62357*
G37*
G36*
X94525Y63537D02*
X92417D01*
Y61429*
X94525*
Y63537*
G37*
G36*
X22225Y62316D02*
X21356D01*
X21373Y62181*
X21474Y61937*
X21635Y61727*
X21845Y61566*
X22089Y61465*
X22225Y61448*
Y62316*
G37*
G36*
X90805Y6353D02*
X90656Y6351D01*
X904Y63404*
X9018Y63235*
X90011Y63015*
X89905Y62759*
X89885Y62611*
X90805*
Y6353*
G37*
G36*
X22479Y63439D02*
Y6257D01*
X23347*
X2333Y62706*
X23228Y6295*
X23068Y6316*
X22858Y6332*
X22614Y63422*
X22479Y63439*
G37*
G36*
X22225D02*
X22089Y63422D01*
X21845Y6332*
X21635Y6316*
X21474Y6295*
X21373Y62706*
X21356Y6257*
X22225*
Y63439*
G37*
G36*
X59055Y63505D02*
X58913Y63486D01*
X58663Y63382*
X58448Y63217*
X58283Y63002*
X58179Y62752*
X5816Y62611*
X59055*
Y63505*
G37*
G36*
X97282Y6497D02*
X97032Y64937D01*
X968Y64841*
X96601Y64688*
X96448Y64489*
X96352Y64256*
X96319Y64008*
X96352Y63758*
X96448Y63526*
X96601Y63327*
X968Y63174*
X97032Y63078*
X97282Y63045*
X9753Y63078*
X97763Y63174*
X97962Y63327*
X98115Y63526*
X98211Y63758*
X98244Y64008*
X98211Y64256*
X98115Y64489*
X97962Y64688*
X97763Y64841*
X9753Y64937*
X97282Y6497*
G37*
G36*
X91059Y6353D02*
Y62611D01*
X91978*
X91958Y62759*
X91852Y63015*
X91683Y63235*
X91463Y63404*
X91207Y6351*
X91059Y6353*
G37*
G36*
X59309Y63505D02*
Y62611D01*
X60203*
X60184Y62752*
X6008Y63002*
X59915Y63217*
X597Y63382*
X5945Y63486*
X59309Y63505*
G37*
G36*
X04191Y63175D02*
Y62357D01*
X05009*
X04993Y62478*
X04897Y62711*
X04744Y6291*
X04545Y63063*
X04312Y63159*
X04191Y63175*
G37*
G36*
X59055Y62357D02*
X5816D01*
X58179Y62215*
X58283Y61965*
X58448Y6175*
X58663Y61585*
X58913Y61481*
X59055Y61462*
Y62357*
G37*
G36*
X6275Y63512D02*
X60692D01*
Y61454*
X6275*
Y63512*
G37*
G36*
X23347Y62316D02*
X22479D01*
Y61448*
X22614Y61465*
X22858Y61566*
X23068Y61727*
X23228Y61937*
X2333Y62181*
X23347Y62316*
G37*
G36*
X60203Y62357D02*
X59309D01*
Y61462*
X5945Y61481*
X597Y61585*
X59915Y6175*
X6008Y61965*
X60184Y62215*
X60203Y62357*
G37*
G36*
X03937Y63175D02*
X03814Y63159D01*
X03582Y63063*
X03383Y6291*
X0323Y62711*
X03134Y62478*
X03118Y62357*
X03937*
Y63175*
G37*
G36*
X3429Y64029D02*
X34021Y63994D01*
X33771Y6389*
X33556Y63725*
X33391Y6351*
X33287Y6326*
X33252Y62992*
X33287Y62723*
X33391Y62473*
X33556Y62258*
X33771Y62093*
X34021Y61989*
X3429Y61954*
X34558Y61989*
X34808Y62093*
X35023Y62258*
X35188Y62473*
X35292Y62723*
X35327Y62992*
X35292Y6326*
X35188Y6351*
X35023Y63725*
X34808Y6389*
X34558Y63994*
X3429Y64029*
G37*
G36*
X3175D02*
X31481Y63994D01*
X31231Y6389*
X31016Y63725*
X30851Y6351*
X30747Y6326*
X30712Y62992*
X30747Y62723*
X30851Y62473*
X31016Y62258*
X31231Y62093*
X31481Y61989*
X3175Y61954*
X32018Y61989*
X32268Y62093*
X32483Y62258*
X32648Y62473*
X32752Y62723*
X32787Y62992*
X32752Y6326*
X32648Y6351*
X32483Y63725*
X32268Y6389*
X32018Y63994*
X3175Y64029*
G37*
G36*
X97282Y6243D02*
X97032Y62397D01*
X968Y62301*
X96601Y62148*
X96448Y61949*
X96352Y61716*
X96319Y61468*
X96352Y61218*
X96448Y60986*
X96601Y60787*
X968Y60634*
X97032Y60538*
X97282Y60505*
X9753Y60538*
X97763Y60634*
X97962Y60787*
X98115Y60986*
X98211Y61218*
X98244Y61468*
X98211Y61716*
X98115Y61949*
X97962Y62148*
X97763Y62301*
X9753Y62397*
X97282Y6243*
G37*
G36*
X1058Y53868D02*
X08722D01*
Y5201*
X09146*
X09196Y51756*
X09183Y51751*
X08989Y51602*
X0884Y51408*
X08746Y51182*
X08731Y51066*
X09652*
X10572*
X10557Y51182*
X10463Y51408*
X10314Y51602*
X1012Y51751*
X10107Y51756*
X10157Y5201*
X1058*
Y53868*
G37*
G36*
X04064Y52016D02*
X03814Y51983D01*
X03582Y51887*
X03383Y51734*
X0323Y51535*
X03134Y51302*
X03101Y51054*
X03134Y50804*
X0323Y50572*
X03383Y50373*
X03582Y5022*
X03814Y50124*
X04064Y50091*
X04312Y50124*
X04545Y5022*
X04744Y50373*
X04897Y50572*
X04993Y50804*
X05026Y51054*
X04993Y51302*
X04897Y51535*
X04744Y51734*
X04545Y51887*
X04312Y51983*
X04064Y52016*
G37*
G36*
X09525Y50812D02*
X08731D01*
X08746Y50697*
X0884Y50471*
X08989Y50277*
X09183Y50128*
X09409Y50034*
X09525Y50019*
Y50812*
G37*
G36*
X97282Y53794D02*
X97032Y53761D01*
X968Y53665*
X96601Y53512*
X96448Y53313*
X96352Y5308*
X96319Y52832*
X96352Y52582*
X96448Y5235*
X96601Y52151*
X968Y51998*
X97032Y51902*
X97282Y51869*
X9753Y51902*
X97763Y51998*
X97962Y52151*
X98115Y5235*
X98211Y52582*
X98244Y52832*
X98211Y5308*
X98115Y53313*
X97962Y53512*
X97763Y53665*
X9753Y53761*
X97282Y53794*
G37*
G36*
X23355Y58447D02*
X21347D01*
Y56439*
X23355*
Y58447*
G37*
G36*
X05017Y58103D02*
X03109D01*
Y56195*
X05017*
Y58103*
G37*
G36*
X80772Y63547D02*
X80496Y6351D01*
X8024Y63404*
X8002Y63235*
X79851Y63015*
X79745Y62759*
X79708Y62484*
X79745Y62208*
X79851Y61952*
X8002Y61732*
X8024Y61563*
X80383Y61504*
Y60358*
X72737Y52712*
X49857*
X49717Y52852*
X49591Y52936*
X49442Y52966*
X48601*
X48452Y52936*
X48326Y52852*
X48186Y52712*
X47244*
X47095Y52682*
X46969Y52598*
X46885Y52472*
X46855Y52324*
Y50331*
X46795Y50306*
X46609Y50163*
X466Y50151*
X46357Y50252*
X46362Y50292*
X46332Y50524*
X46242Y5074*
X46099Y50925*
X45914Y51068*
X45854Y51093*
Y52417*
X47658Y54221*
X7239*
X72538Y54251*
X72664Y54335*
X78506Y60177*
X7859Y60303*
X7862Y60452*
Y61504*
X78763Y61563*
X78983Y61732*
X79152Y61952*
X79258Y62208*
X79295Y62484*
X79258Y62759*
X79152Y63015*
X78983Y63235*
X78763Y63404*
X78507Y6351*
X78232Y63547*
X77956Y6351*
X777Y63404*
X7748Y63235*
X77311Y63015*
X77205Y62759*
X77168Y62484*
X77205Y62208*
X77311Y61952*
X7748Y61732*
X777Y61563*
X77843Y61504*
Y60612*
X72229Y54998*
X47498*
X47349Y54968*
X47223Y54884*
X45191Y52852*
X44895Y52827*
X44838Y52866*
Y53433*
X46896Y55491*
X71374*
X71522Y55521*
X71648Y55605*
X75966Y59923*
X7605Y60049*
X7608Y60198*
Y61504*
X76223Y61563*
X76443Y61732*
X76612Y61952*
X76718Y62208*
X76755Y62484*
X76718Y62759*
X76612Y63015*
X76443Y63235*
X76223Y63404*
X75967Y6351*
X75692Y63547*
X75416Y6351*
X7516Y63404*
X7494Y63235*
X74771Y63015*
X74665Y62759*
X74628Y62484*
X74665Y62208*
X74771Y61952*
X7494Y61732*
X7516Y61563*
X75303Y61504*
Y60358*
X71213Y56268*
X69442*
X69417Y56522*
X6949Y56537*
X69616Y56621*
X73426Y60431*
X7351Y60557*
X7354Y60706*
Y61504*
X73683Y61563*
X73903Y61732*
X74072Y61952*
X74178Y62208*
X74215Y62484*
X74178Y62759*
X74072Y63015*
X73903Y63235*
X73683Y63404*
X73427Y6351*
X73152Y63547*
X72876Y6351*
X7262Y63404*
X724Y63235*
X72231Y63015*
X72125Y62759*
X72088Y62484*
X72125Y62208*
X72231Y61952*
X724Y61732*
X7262Y61563*
X72763Y61504*
Y60866*
X69181Y57284*
X67664*
X67639Y57538*
X67712Y57553*
X67838Y57637*
X70886Y60685*
X7097Y60811*
X71Y6096*
Y61504*
X71143Y61563*
X71363Y61732*
X71532Y61952*
X71638Y62208*
X71675Y62484*
X71638Y62759*
X71532Y63015*
X71363Y63235*
X71143Y63404*
X70887Y6351*
X70612Y63547*
X70336Y6351*
X7008Y63404*
X6986Y63235*
X69691Y63015*
X69585Y62759*
X69548Y62484*
X69585Y62208*
X69691Y61952*
X6986Y61732*
X7008Y61563*
X70223Y61504*
Y6112*
X67403Y583*
X6614*
X66115Y58554*
X66188Y58569*
X66314Y58653*
X68346Y60685*
X6843Y60811*
X6846Y6096*
Y61504*
X68603Y61563*
X68823Y61732*
X68992Y61952*
X69098Y62208*
X69135Y62484*
X69098Y62759*
X68992Y63015*
X68823Y63235*
X68603Y63404*
X68347Y6351*
X68072Y63547*
X67796Y6351*
X6754Y63404*
X6732Y63235*
X67151Y63015*
X67045Y62759*
X67008Y62484*
X67045Y62208*
X67151Y61952*
X6732Y61732*
X6754Y61563*
X67683Y61504*
Y6112*
X65879Y59316*
X64362*
X64337Y5957*
X6441Y59585*
X64536Y59669*
X65806Y60939*
X6589Y61065*
X6592Y61214*
Y61504*
X66063Y61563*
X66283Y61732*
X66452Y61952*
X66558Y62208*
X66595Y62484*
X66558Y62759*
X66452Y63015*
X66283Y63235*
X66063Y63404*
X65807Y6351*
X65532Y63547*
X65256Y6351*
X65Y63404*
X6478Y63235*
X64611Y63015*
X64505Y62759*
X64468Y62484*
X64505Y62208*
X64611Y61952*
X6478Y61732*
X65Y61563*
X6504Y61271*
X64101Y60332*
X44958*
X44809Y60302*
X44683Y60218*
X38645Y54181*
X38586Y54206*
X38354Y54236*
X38121Y54206*
X37905Y54116*
X37719Y53973*
X37577Y53788*
X37487Y53572*
X37457Y5334*
X37487Y53107*
X37577Y52891*
X37719Y52705*
X37905Y52563*
X38121Y52473*
X38354Y52443*
X38552Y52469*
X38663Y52379*
X38753Y52268*
X38727Y5207*
X38757Y51837*
X38847Y51621*
X38989Y51435*
X39175Y51293*
X39391Y51203*
X39624Y51173*
X39856Y51203*
X40072Y51293*
X40113Y51325*
X40341Y51362*
X40444Y51272*
X40513Y51181*
X40699Y51039*
X40915Y50949*
X41148Y50919*
X4138Y50949*
X41596Y51039*
X41741Y5115*
X41898Y51183*
X41921*
X42078Y5115*
X42223Y51039*
X42439Y50949*
X42672Y50919*
X42904Y50949*
X4312Y51039*
X43305Y51181*
X43416Y51325*
X43561Y51349*
X43705Y51325*
X43815Y51181*
X44001Y51039*
X44217Y50949*
X4445Y50919*
X44512Y50927*
X44595Y50839*
X44669Y50691*
X44599Y50524*
X44569Y50292*
X44599Y50059*
X44689Y49843*
X44831Y49657*
X45017Y49515*
X45233Y49425*
X45466Y49395*
X45698Y49425*
X45914Y49515*
X46099Y49657*
X46109Y4967*
X46352Y49569*
X46347Y4953*
X46377Y49297*
X46467Y49081*
X46609Y48895*
X46795Y48753*
X47011Y48663*
X47244Y48633*
X47476Y48663*
X47692Y48753*
X47877Y48895*
X4802Y49081*
X4811Y49297*
X4814Y4953*
X4811Y49762*
X4802Y49978*
X47877Y50163*
X47692Y50306*
X47632Y50331*
Y51935*
X47966*
X48141Y51681*
X48125Y51562*
X48155Y51329*
X48245Y51113*
X48387Y50927*
X48573Y50785*
X48789Y50695*
X49022Y50665*
X49254Y50695*
X49313Y5072*
X52697Y47337*
Y42203*
X52637Y42178*
X52451Y42035*
X52309Y4185*
X52219Y41634*
X52189Y41402*
X52219Y41169*
X52309Y40953*
X52451Y40767*
X52637Y40625*
X52853Y40535*
X53086Y40505*
X53318Y40535*
X53534Y40625*
X53719Y40767*
X53862Y40953*
X53952Y41169*
X53982Y41402*
X53952Y41634*
X53862Y4185*
X53719Y42035*
X53534Y42178*
X53474Y42203*
Y47498*
X53444Y47646*
X5336Y47772*
X49863Y5127*
X49888Y51329*
X49918Y51562*
X49902Y51681*
X50077Y51935*
X72898*
X73046Y51965*
X73172Y52049*
X81046Y59923*
X8113Y60049*
X8116Y60198*
Y61504*
X81303Y61563*
X81523Y61732*
X81692Y61952*
X81798Y62208*
X81835Y62484*
X81798Y62759*
X81692Y63015*
X81523Y63235*
X81303Y63404*
X81047Y6351*
X80772Y63547*
G37*
G36*
X04064Y49476D02*
X03814Y49443D01*
X03582Y49347*
X03383Y49194*
X0323Y48995*
X03134Y48762*
X03101Y48514*
X03134Y48264*
X0323Y48032*
X03383Y47833*
X03582Y4768*
X03814Y47584*
X04064Y47551*
X04312Y47584*
X04545Y4768*
X04744Y47833*
X04897Y48032*
X04993Y48264*
X05026Y48514*
X04993Y48762*
X04897Y48995*
X04744Y49194*
X04545Y49347*
X04312Y49443*
X04064Y49476*
G37*
G36*
X98235Y47625D02*
X97409D01*
Y46797*
X98235*
Y47625*
G37*
G36*
X97155D02*
X96327D01*
Y46797*
X97155*
Y47625*
G37*
G36*
Y48705D02*
X96327D01*
Y47879*
X97155*
Y48705*
G37*
G36*
X10572Y50812D02*
X09779D01*
Y50019*
X09894Y50034*
X1012Y50128*
X10314Y50277*
X10463Y50471*
X10557Y50697*
X10572Y50812*
G37*
G36*
X97282Y51254D02*
X97032Y51221D01*
X968Y51125*
X96601Y50972*
X96448Y50773*
X96352Y5054*
X96319Y50292*
X96352Y50042*
X96448Y4981*
X96601Y49611*
X968Y49458*
X97032Y49362*
X97282Y49329*
X9753Y49362*
X97763Y49458*
X97962Y49611*
X98115Y4981*
X98211Y50042*
X98244Y50292*
X98211Y5054*
X98115Y50773*
X97962Y50972*
X97763Y51125*
X9753Y51221*
X97282Y51254*
G37*
G36*
X98235Y48705D02*
X97409D01*
Y47879*
X98235*
Y48705*
G37*
G36*
X97155Y58801D02*
X96327D01*
Y57973*
X97155*
Y58801*
G37*
G36*
X98235Y59881D02*
X97409D01*
Y59055*
X98235*
Y59881*
G37*
G36*
X35433Y58537D02*
Y57785D01*
X36185*
X36172Y5789*
X36082Y58106*
X35939Y58291*
X35754Y58434*
X35538Y58524*
X35433Y58537*
G37*
G36*
X97155Y59881D02*
X96327D01*
Y59055*
X97155*
Y59881*
G37*
G36*
X04064Y60652D02*
X03814Y60619D01*
X03582Y60523*
X03383Y6037*
X0323Y60171*
X03134Y59938*
X03101Y5969*
X03134Y5944*
X0323Y59208*
X03383Y59009*
X03582Y58856*
X03814Y5876*
X04064Y58727*
X04312Y5876*
X04545Y58856*
X04744Y59009*
X04897Y59208*
X04993Y5944*
X05026Y5969*
X04993Y59938*
X04897Y60171*
X04744Y6037*
X04545Y60523*
X04312Y60619*
X04064Y60652*
G37*
G36*
X98235Y58801D02*
X97409D01*
Y57973*
X98235*
Y58801*
G37*
G36*
X35179Y58537D02*
X35073Y58524D01*
X34857Y58434*
X34671Y58291*
X34529Y58106*
X34439Y5789*
X34425Y57785*
X35179*
Y58537*
G37*
G36*
X88392Y63547D02*
X88116Y6351D01*
X8786Y63404*
X8764Y63235*
X87471Y63015*
X87365Y62759*
X87328Y62484*
X87365Y62208*
X87471Y61952*
X8764Y61732*
X8786Y61563*
X88003Y61504*
Y58834*
X86494Y57325*
X8624Y5743*
Y61504*
X86383Y61563*
X86603Y61732*
X86772Y61952*
X86878Y62208*
X86915Y62484*
X86878Y62759*
X86772Y63015*
X86603Y63235*
X86383Y63404*
X86127Y6351*
X85852Y63547*
X85576Y6351*
X8532Y63404*
X851Y63235*
X84931Y63015*
X84825Y62759*
X84788Y62484*
X84825Y62208*
X84931Y61952*
X851Y61732*
X8532Y61563*
X85463Y61504*
Y5731*
X83941Y55788*
X83763Y55855*
X837Y55907*
Y61504*
X83843Y61563*
X84063Y61732*
X84232Y61952*
X84338Y62208*
X84375Y62484*
X84338Y62759*
X84232Y63015*
X84063Y63235*
X83843Y63404*
X83587Y6351*
X83312Y63547*
X83036Y6351*
X8278Y63404*
X8256Y63235*
X82391Y63015*
X82285Y62759*
X82248Y62484*
X82285Y62208*
X82391Y61952*
X8256Y61732*
X8278Y61563*
X82923Y61504*
Y5604*
X60545Y33662*
X49061*
X49036Y33722*
X48893Y33907*
X48708Y3405*
X48492Y3414*
X4826Y3417*
X48027Y3414*
X47811Y3405*
X47625Y33907*
X47483Y33722*
X47393Y33506*
X47363Y33274*
X47393Y33041*
X47483Y32825*
X47625Y32639*
X47811Y32497*
X48027Y32407*
X48193Y32386*
Y32129*
X48027Y32108*
X47811Y32018*
X47625Y31875*
X47483Y3169*
X47393Y31474*
X47363Y31242*
X47393Y31009*
X47483Y30793*
X47625Y30607*
X47811Y30465*
X48027Y30375*
X4826Y30345*
X48492Y30375*
X48708Y30465*
X48893Y30607*
X49036Y30793*
X49061Y30853*
X59662*
X59768Y30599*
X58005Y28836*
X49061*
X49036Y28896*
X48893Y29081*
X48708Y29224*
X48492Y29314*
X4826Y29344*
X48027Y29314*
X47811Y29224*
X47625Y29081*
X47483Y28896*
X47393Y2868*
X47363Y28448*
X47393Y28215*
X47483Y27999*
X47625Y27813*
X47811Y27671*
X48027Y27581*
X4826Y27551*
X48492Y27581*
X48708Y27671*
X48893Y27813*
X49036Y27999*
X49061Y28059*
X58166*
X58314Y28089*
X5844Y28173*
X88666Y58399*
X8875Y58525*
X8878Y58674*
Y61504*
X88923Y61563*
X89143Y61732*
X89312Y61952*
X89418Y62208*
X89455Y62484*
X89418Y62759*
X89312Y63015*
X89143Y63235*
X88923Y63404*
X88667Y6351*
X88392Y63547*
G37*
G36*
X36185Y57531D02*
X35433D01*
Y56777*
X35538Y56791*
X35754Y56881*
X35939Y57023*
X36082Y57209*
X36172Y57425*
X36185Y57531*
G37*
G36*
X35179D02*
X34425D01*
X34439Y57425*
X34529Y57209*
X34671Y57023*
X34857Y56881*
X35073Y56791*
X35179Y56777*
Y57531*
G37*
G36*
X3429Y61489D02*
X34021Y61454D01*
X33771Y6135*
X33556Y61185*
X33391Y6097*
X33287Y6072*
X33252Y60452*
X33287Y60183*
X33391Y59933*
X33556Y59718*
X33771Y59553*
X34021Y59449*
X3429Y59414*
X34558Y59449*
X34808Y59553*
X35023Y59718*
X35188Y59933*
X35292Y60183*
X35327Y60452*
X35292Y6072*
X35188Y6097*
X35023Y61185*
X34808Y6135*
X34558Y61454*
X3429Y61489*
G37*
G36*
X31623Y60325D02*
X3072D01*
Y59422*
X31623*
Y60325*
G37*
G36*
X32778D02*
X31877D01*
Y59422*
X32778*
Y60325*
G37*
%LNpcb1-3*%
%LPD*%
G36*
X46152Y57269D02*
X46079Y57254D01*
X45953Y5717*
X42397Y53614*
X42313Y53488*
X42283Y5334*
Y52617*
X42223Y52592*
X42078Y52481*
X41921Y52448*
X41898*
X41741Y52481*
X41596Y52592*
X41536Y52617*
Y53179*
X4588Y57523*
X46127*
X46152Y57269*
G37*
G36*
X45644Y58285D02*
X45571Y5827D01*
X45445Y58186*
X40873Y53614*
X40789Y53488*
X40759Y5334*
Y52617*
X40699Y52592*
X40657Y5256*
X4043Y52523*
X40327Y52613*
X40257Y52703*
X40072Y52846*
X40012Y52871*
Y53179*
X45372Y58539*
X45619*
X45644Y58285*
G37*
G36*
X4666Y56253D02*
X46587Y56238D01*
X46461Y56154*
X44175Y53868*
X44091Y53742*
X44061Y53594*
Y52617*
X44001Y52592*
X43815Y52449*
X43705Y52306*
X43561Y52282*
X43416Y52306*
X43305Y52449*
X4312Y52592*
X4306Y52617*
Y53179*
X46388Y56507*
X46635*
X4666Y56253*
G37*
G36*
X60729Y32822D02*
X60797Y32644D01*
X59783Y3163*
X49061*
X49036Y3169*
X48893Y31875*
X48708Y32018*
X48492Y32108*
X48326Y32129*
Y32386*
X48492Y32407*
X48708Y32497*
X48893Y32639*
X49036Y32825*
X49061Y32885*
X60678*
X60729Y32822*
G37*
G54D19*
X35306Y57912D02*
X35814D01*
X35052Y57658D02*
X35306Y57912D01*
X9271Y46736D02*
X97282Y42164D01*
X5334Y23114D02*
Y23622D01*
Y23114D02*
X5588Y20574D01*
X91948*
X97282Y25908*
X09652Y50939D02*
X11315D01*
X24343Y60452D02*
X3175D01*
X22352Y62443D02*
X24343Y60452D01*
X49022Y51562D02*
X53086Y47498D01*
Y41402D02*
Y47498D01*
X57404Y60706D02*
X59182Y62484D01*
X35306Y57658D02*
Y57912D01*
X11315Y50939D02*
X18034Y57658D01*
X21444Y58574D02*
X23259D01*
X24176Y57658D02*
X35052D01*
X18034D02*
X20527D01*
X21444Y58574*
X23259D02*
X24176Y57658D01*
X35814Y57912D02*
X38608Y60706D01*
X57404*
X83312Y5588D02*
Y62484D01*
X4826Y33274D02*
X60706D01*
X83312Y5588*
X4826Y31242D02*
X59944D01*
X85852Y5715*
Y62484*
X58166Y28448D02*
X88392Y58674D01*
Y62484*
X762Y44196D02*
X7874Y46736D01*
X9271*
X4826Y28448D02*
X58166D01*
X64262Y59944D02*
X65532Y61214D01*
Y62484*
X38354Y5334D02*
X44958Y59944D01*
X64262*
X39624Y5207D02*
Y5334D01*
X45212Y58928*
X6604*
X68072Y6096*
Y62484*
X41148Y51816D02*
Y5334D01*
X4572Y57912*
X67564*
X70612Y6096*
Y62484*
X42672Y51816D02*
Y5334D01*
X46228Y56896*
X69342*
X73152Y60706*
Y62484*
X4445Y51816D02*
Y53594D01*
X46736Y5588*
X71374*
X75692Y60198*
Y62484*
X45466Y50292D02*
Y52578D01*
X47498Y5461*
X7239*
X78232Y60452*
Y62484*
X47244Y4953D02*
Y52324D01*
X48347*
X48601Y52578*
X49442*
X49696Y52324*
X72898*
X80772Y60198*
Y62484*
X22606Y44958D02*
X35306Y57658D01*
G54D20*
X0381Y13208D03*
Y2413D03*
X04064Y35052D03*
Y5715D03*
Y45974D03*
X97282Y58928D03*
Y47752D03*
Y37084D03*
Y25908D03*
Y14732D03*
Y0381D03*
G54D21*
X0381Y15748D03*
Y18288D03*
Y2667D03*
Y2921D03*
X28347Y40132D03*
X04064Y37592D03*
Y40132D03*
Y5969D03*
Y6223D03*
Y48514D03*
Y51054D03*
X97282Y61468D03*
Y64008D03*
Y50292D03*
Y52832D03*
Y39624D03*
Y42164D03*
Y28448D03*
Y30988D03*
Y17272D03*
Y19812D03*
Y0635D03*
Y0889D03*
G54D22*
X23467Y40132D03*
G54D23*
X22352Y62443D03*
G54D24*
X22352Y57443D03*
G54D25*
X09652Y50939D03*
G54D26*
X09652Y52939D03*
G54D27*
X4064Y23622D03*
X61722Y62484D03*
X3175Y60452D03*
G54D28*
X4318Y23622D03*
X4572D03*
X4826D03*
X508D03*
X5334D03*
X59182Y62484D03*
X56642D03*
X54102D03*
X51562D03*
X49022D03*
X46482D03*
X43942D03*
X41402D03*
X38862D03*
X3175Y62992D03*
X3429Y60452D03*
Y62992D03*
G54D29*
X80772Y62484D03*
X90932D03*
X88392D03*
X85852D03*
X83312D03*
X78232D03*
X75692D03*
X73152D03*
X70612D03*
X68072D03*
X65532D03*
G54D30*
X93472Y62484D03*
G54D31*
X49022Y51562D03*
X53086Y41402D03*
X35306Y57658D03*
X4826Y33274D03*
Y31242D03*
Y28448D03*
X762Y44196D03*
X38354Y5334D03*
X39624Y5207D03*
X41148Y51816D03*
X42672D03*
X4445D03*
X45466Y50292D03*
X47244Y4953D03*
X22606Y44958D03*
M02*