%FSTAX23Y23*%
%MOMM*%
%SFA1B1*%

%IPPOS*%
%AMD22*
4,1,8,-0.292100,0.701040,-0.701040,0.292100,-0.701040,-0.292100,-0.292100,-0.701040,0.292100,-0.701040,0.701040,-0.292100,0.701040,0.292100,0.292100,0.701040,-0.292100,0.701040,0.0*
%
%ADD20R,1.399997X1.399997*%
%ADD21C,1.399997*%
G04~CAMADD=22~4~0.0~0.0~551.2~551.2~0.0~161.4~0~0.0~0.0~0.0~0.0~0~0.0~0.0~0.0~0.0~0~0.0~0.0~0.0~45.0~551.2~551.2*
%ADD22D22*%
%ADD23C,1.499997*%
%ADD24R,1.499997X1.499997*%
%ADD25C,1.349997*%
%ADD26R,1.349997X1.349997*%
%ADD27R,1.549997X1.549997*%
%ADD28C,1.549997*%
%ADD29C,1.599997*%
%ADD30R,1.599997X1.599997*%
%ADD31C,1.269997*%
%LNpcb1-1*%
%LPD*%
G54D20*
X0381Y13208D03*
Y2413D03*
X04064Y35052D03*
Y5715D03*
Y45974D03*
X97282Y58928D03*
Y47752D03*
Y37084D03*
Y25908D03*
Y14732D03*
Y0381D03*
G54D21*
X0381Y15748D03*
Y18288D03*
Y2667D03*
Y2921D03*
X28347Y40132D03*
X04064Y37592D03*
Y40132D03*
Y5969D03*
Y6223D03*
Y48514D03*
Y51054D03*
X97282Y61468D03*
Y64008D03*
Y50292D03*
Y52832D03*
Y39624D03*
Y42164D03*
Y28448D03*
Y30988D03*
Y17272D03*
Y19812D03*
Y0635D03*
Y0889D03*
G54D22*
X23467Y40132D03*
G54D23*
X22352Y62443D03*
G54D24*
X22352Y57443D03*
G54D25*
X09652Y50939D03*
G54D26*
X09652Y52939D03*
G54D27*
X4064Y23622D03*
X61722Y62484D03*
X3175Y60452D03*
G54D28*
X4318Y23622D03*
X4572D03*
X4826D03*
X508D03*
X5334D03*
X59182Y62484D03*
X56642D03*
X54102D03*
X51562D03*
X49022D03*
X46482D03*
X43942D03*
X41402D03*
X38862D03*
X3175Y62992D03*
X3429Y60452D03*
Y62992D03*
G54D29*
X80772Y62484D03*
X90932D03*
X88392D03*
X85852D03*
X83312D03*
X78232D03*
X75692D03*
X73152D03*
X70612D03*
X68072D03*
X65532D03*
G54D30*
X93472Y62484D03*
G54D31*
X49022Y51562D03*
X53086Y41402D03*
X35306Y57658D03*
X4826Y33274D03*
Y31242D03*
Y28448D03*
X762Y44196D03*
X38354Y5334D03*
X39624Y5207D03*
X41148Y51816D03*
X42672D03*
X4445D03*
X45466Y50292D03*
X47244Y4953D03*
X22606Y44958D03*
M02*