G04 Layer_Physical_Order=2*
G04 Layer_Color=13278208*
%FSLAX44Y44*%
%MOMM*%
G71*
G01*
G75*
%ADD19C,0.2540*%
%ADD20R,1.4000X1.4000*%
%ADD21C,1.4000*%
%ADD22P,1.5154X8X22.5*%
%ADD23C,1.5000*%
%ADD24R,1.5000X1.5000*%
%ADD25C,1.3500*%
%ADD26R,1.3500X1.3500*%
%ADD27R,1.5500X1.5500*%
%ADD28C,1.5500*%
%ADD29C,1.6000*%
%ADD30R,1.6000X1.6000*%
%ADD31C,1.2700*%
G36*
X1000760Y0D02*
X0D01*
Y680720D01*
X1000760D01*
Y0D01*
D02*
G37*
%LPC*%
G36*
X39370Y360060D02*
X31100D01*
Y351790D01*
X39370D01*
Y360060D01*
D02*
G37*
G36*
X50180Y349250D02*
X41910D01*
Y340980D01*
X50180D01*
Y349250D01*
D02*
G37*
G36*
X39370D02*
X31100D01*
Y340980D01*
X39370D01*
Y349250D01*
D02*
G37*
G36*
X50180Y360060D02*
X41910D01*
Y351790D01*
X50180D01*
Y360060D01*
D02*
G37*
G36*
X40640Y385542D02*
X38150Y385214D01*
X35829Y384253D01*
X33836Y382724D01*
X32307Y380731D01*
X31346Y378410D01*
X31018Y375920D01*
X31346Y373430D01*
X32307Y371109D01*
X33836Y369116D01*
X35829Y367587D01*
X38150Y366626D01*
X40640Y366298D01*
X43130Y366626D01*
X45451Y367587D01*
X47444Y369116D01*
X48973Y371109D01*
X49934Y373430D01*
X50262Y375920D01*
X49934Y378410D01*
X48973Y380731D01*
X47444Y382724D01*
X45451Y384253D01*
X43130Y385214D01*
X40640Y385542D01*
D02*
G37*
G36*
X982360Y369570D02*
X974090D01*
Y361300D01*
X982360D01*
Y369570D01*
D02*
G37*
G36*
X971550D02*
X963280D01*
Y361300D01*
X971550D01*
Y369570D01*
D02*
G37*
G36*
X972820Y319502D02*
X970330Y319174D01*
X968009Y318213D01*
X966016Y316684D01*
X964487Y314691D01*
X963526Y312370D01*
X963198Y309880D01*
X963526Y307390D01*
X964487Y305069D01*
X966016Y303076D01*
X968009Y301547D01*
X970330Y300586D01*
X972820Y300258D01*
X975310Y300586D01*
X977631Y301547D01*
X979624Y303076D01*
X981153Y305069D01*
X982114Y307390D01*
X982442Y309880D01*
X982114Y312370D01*
X981153Y314691D01*
X979624Y316684D01*
X977631Y318213D01*
X975310Y319174D01*
X972820Y319502D01*
D02*
G37*
G36*
X38100Y276322D02*
X35610Y275994D01*
X33289Y275033D01*
X31296Y273504D01*
X29767Y271511D01*
X28806Y269190D01*
X28478Y266700D01*
X28806Y264210D01*
X29767Y261889D01*
X31296Y259896D01*
X33289Y258367D01*
X35610Y257406D01*
X38100Y257078D01*
X40590Y257406D01*
X42911Y258367D01*
X44904Y259896D01*
X46433Y261889D01*
X47394Y264210D01*
X47722Y266700D01*
X47394Y269190D01*
X46433Y271511D01*
X44904Y273504D01*
X42911Y275033D01*
X40590Y275994D01*
X38100Y276322D01*
D02*
G37*
G36*
X982360Y257810D02*
X974090D01*
Y249540D01*
X982360D01*
Y257810D01*
D02*
G37*
G36*
X971550D02*
X963280D01*
Y249540D01*
X971550D01*
Y257810D01*
D02*
G37*
G36*
Y268620D02*
X963280D01*
Y260350D01*
X971550D01*
Y268620D01*
D02*
G37*
G36*
X38100Y301722D02*
X35610Y301394D01*
X33289Y300433D01*
X31296Y298904D01*
X29767Y296911D01*
X28806Y294590D01*
X28478Y292100D01*
X28806Y289610D01*
X29767Y287289D01*
X31296Y285296D01*
X33289Y283767D01*
X35610Y282806D01*
X38100Y282478D01*
X40590Y282806D01*
X42911Y283767D01*
X44904Y285296D01*
X46433Y287289D01*
X47394Y289610D01*
X47722Y292100D01*
X47394Y294590D01*
X46433Y296911D01*
X44904Y298904D01*
X42911Y300433D01*
X40590Y301394D01*
X38100Y301722D01*
D02*
G37*
G36*
X972820Y294102D02*
X970330Y293774D01*
X968009Y292813D01*
X966016Y291284D01*
X964487Y289291D01*
X963526Y286970D01*
X963198Y284480D01*
X963526Y281990D01*
X964487Y279669D01*
X966016Y277676D01*
X968009Y276147D01*
X970330Y275186D01*
X972820Y274858D01*
X975310Y275186D01*
X977631Y276147D01*
X979624Y277676D01*
X981153Y279669D01*
X982114Y281990D01*
X982442Y284480D01*
X982114Y286970D01*
X981153Y289291D01*
X979624Y291284D01*
X977631Y292813D01*
X975310Y293774D01*
X972820Y294102D01*
D02*
G37*
G36*
X982360Y268620D02*
X974090D01*
Y260350D01*
X982360D01*
Y268620D01*
D02*
G37*
G36*
X50180Y458470D02*
X41910D01*
Y450200D01*
X50180D01*
Y458470D01*
D02*
G37*
G36*
X39370D02*
X31100D01*
Y450200D01*
X39370D01*
Y458470D01*
D02*
G37*
G36*
X234860Y448310D02*
X227330D01*
Y440780D01*
X228381Y440919D01*
X230543Y441815D01*
X232400Y443240D01*
X233825Y445097D01*
X234721Y447259D01*
X234860Y448310D01*
D02*
G37*
G36*
X224790Y458380D02*
X223739Y458241D01*
X221577Y457345D01*
X219720Y455920D01*
X218295Y454063D01*
X217399Y451901D01*
X217260Y450850D01*
X224790D01*
Y458380D01*
D02*
G37*
G36*
X50180Y469280D02*
X41910D01*
Y461010D01*
X50180D01*
Y469280D01*
D02*
G37*
G36*
X39370D02*
X31100D01*
Y461010D01*
X39370D01*
Y469280D01*
D02*
G37*
G36*
X227330Y458380D02*
Y450850D01*
X234860D01*
X234721Y451901D01*
X233825Y454063D01*
X232400Y455920D01*
X230543Y457345D01*
X228381Y458241D01*
X227330Y458380D01*
D02*
G37*
G36*
X224790Y448310D02*
X217260D01*
X217399Y447259D01*
X218295Y445097D01*
X219720Y443240D01*
X221577Y441815D01*
X223739Y440919D01*
X224790Y440780D01*
Y448310D01*
D02*
G37*
G36*
X972820Y405862D02*
X970330Y405534D01*
X968009Y404573D01*
X966016Y403044D01*
X964487Y401051D01*
X963526Y398730D01*
X963198Y396240D01*
X963526Y393750D01*
X964487Y391429D01*
X966016Y389436D01*
X968009Y387907D01*
X970330Y386946D01*
X972820Y386618D01*
X975310Y386946D01*
X977631Y387907D01*
X979624Y389436D01*
X981153Y391429D01*
X982114Y393750D01*
X982442Y396240D01*
X982114Y398730D01*
X981153Y401051D01*
X979624Y403044D01*
X977631Y404573D01*
X975310Y405534D01*
X972820Y405862D01*
D02*
G37*
G36*
X982360Y380380D02*
X974090D01*
Y372110D01*
X982360D01*
Y380380D01*
D02*
G37*
G36*
X971550D02*
X963280D01*
Y372110D01*
X971550D01*
Y380380D01*
D02*
G37*
G36*
X40640Y410942D02*
X38150Y410614D01*
X35829Y409653D01*
X33836Y408124D01*
X32307Y406131D01*
X31346Y403810D01*
X31018Y401320D01*
X31346Y398830D01*
X32307Y396509D01*
X33836Y394516D01*
X35829Y392987D01*
X38150Y392026D01*
X40640Y391698D01*
X43130Y392026D01*
X45451Y392987D01*
X47444Y394516D01*
X48973Y396509D01*
X49934Y398830D01*
X50262Y401320D01*
X49934Y403810D01*
X48973Y406131D01*
X47444Y408124D01*
X45451Y409653D01*
X43130Y410614D01*
X40640Y410942D01*
D02*
G37*
G36*
X927100Y471245D02*
X787400D01*
X785913Y470949D01*
X784653Y470107D01*
X764920Y450373D01*
X764321Y450621D01*
X762000Y450927D01*
X759679Y450621D01*
X757517Y449725D01*
X755660Y448300D01*
X754235Y446443D01*
X753339Y444281D01*
X753033Y441960D01*
X753339Y439639D01*
X754235Y437477D01*
X755660Y435620D01*
X757517Y434195D01*
X759679Y433299D01*
X762000Y432993D01*
X764321Y433299D01*
X766483Y434195D01*
X768340Y435620D01*
X769765Y437477D01*
X770661Y439639D01*
X770967Y441960D01*
X770661Y444281D01*
X770413Y444879D01*
X789009Y463475D01*
X925491D01*
X963909Y425057D01*
X963526Y424130D01*
X963198Y421640D01*
X963526Y419150D01*
X964487Y416829D01*
X966016Y414836D01*
X968009Y413307D01*
X970330Y412346D01*
X972820Y412018D01*
X975310Y412346D01*
X977631Y413307D01*
X979624Y414836D01*
X981153Y416829D01*
X982114Y419150D01*
X982442Y421640D01*
X982114Y424130D01*
X981153Y426451D01*
X979624Y428444D01*
X977631Y429973D01*
X975310Y430934D01*
X972820Y431262D01*
X970330Y430934D01*
X969403Y430551D01*
X929847Y470107D01*
X928587Y470949D01*
X927100Y471245D01*
D02*
G37*
G36*
X239450Y410860D02*
X229910D01*
X225140Y406090D01*
Y396550D01*
X229910Y391780D01*
X239450D01*
X244220Y396550D01*
Y406090D01*
X239450Y410860D01*
D02*
G37*
G36*
X283480Y410942D02*
X280990Y410614D01*
X278669Y409653D01*
X276676Y408124D01*
X275147Y406131D01*
X274186Y403810D01*
X273858Y401320D01*
X274186Y398830D01*
X275147Y396509D01*
X276676Y394516D01*
X278669Y392987D01*
X280990Y392026D01*
X283480Y391698D01*
X285970Y392026D01*
X288291Y392987D01*
X290284Y394516D01*
X291813Y396509D01*
X292774Y398830D01*
X293102Y401320D01*
X292774Y403810D01*
X291813Y406131D01*
X290284Y408124D01*
X288291Y409653D01*
X285970Y410614D01*
X283480Y410942D01*
D02*
G37*
G36*
X47640Y250840D02*
X39370D01*
Y242570D01*
X47640D01*
Y250840D01*
D02*
G37*
G36*
X971550Y146050D02*
X963280D01*
Y137780D01*
X971550D01*
Y146050D01*
D02*
G37*
G36*
X47640Y141620D02*
X39370D01*
Y133350D01*
X47640D01*
Y141620D01*
D02*
G37*
G36*
X36830D02*
X28560D01*
Y133350D01*
X36830D01*
Y141620D01*
D02*
G37*
G36*
X982360Y146050D02*
X974090D01*
Y137780D01*
X982360D01*
Y146050D01*
D02*
G37*
G36*
Y156860D02*
X974090D01*
Y148590D01*
X982360D01*
Y156860D01*
D02*
G37*
G36*
X971550D02*
X963280D01*
Y148590D01*
X971550D01*
Y156860D01*
D02*
G37*
G36*
X38100Y167102D02*
X35610Y166774D01*
X33289Y165813D01*
X31296Y164284D01*
X29767Y162291D01*
X28806Y159970D01*
X28478Y157480D01*
X28806Y154990D01*
X29767Y152669D01*
X31296Y150676D01*
X33289Y149147D01*
X35610Y148186D01*
X38100Y147858D01*
X40590Y148186D01*
X42911Y149147D01*
X44904Y150676D01*
X46433Y152669D01*
X47394Y154990D01*
X47722Y157480D01*
X47394Y159970D01*
X46433Y162291D01*
X44904Y164284D01*
X42911Y165813D01*
X40590Y166774D01*
X38100Y167102D01*
D02*
G37*
G36*
X47640Y130810D02*
X39370D01*
Y122540D01*
X47640D01*
Y130810D01*
D02*
G37*
G36*
X971550Y47640D02*
X963280D01*
Y39370D01*
X971550D01*
Y47640D01*
D02*
G37*
G36*
X982360Y36830D02*
X974090D01*
Y28560D01*
X982360D01*
Y36830D01*
D02*
G37*
G36*
X971550D02*
X963280D01*
Y28560D01*
X971550D01*
Y36830D01*
D02*
G37*
G36*
X982360Y47640D02*
X974090D01*
Y39370D01*
X982360D01*
Y47640D01*
D02*
G37*
G36*
X36830Y130810D02*
X28560D01*
Y122540D01*
X36830D01*
Y130810D01*
D02*
G37*
G36*
X972820Y98522D02*
X970330Y98194D01*
X968009Y97233D01*
X966016Y95704D01*
X964487Y93711D01*
X963526Y91390D01*
X963198Y88900D01*
X963526Y86410D01*
X964487Y84089D01*
X966016Y82096D01*
X968009Y80567D01*
X970330Y79606D01*
X972820Y79278D01*
X975310Y79606D01*
X977631Y80567D01*
X979624Y82096D01*
X981153Y84089D01*
X982114Y86410D01*
X982442Y88900D01*
X982114Y91390D01*
X981153Y93711D01*
X979624Y95704D01*
X977631Y97233D01*
X975310Y98194D01*
X972820Y98522D01*
D02*
G37*
G36*
Y73122D02*
X970330Y72794D01*
X968009Y71833D01*
X966016Y70304D01*
X964487Y68311D01*
X963526Y65990D01*
X963198Y63500D01*
X963526Y61010D01*
X964487Y58689D01*
X966016Y56696D01*
X968009Y55167D01*
X970330Y54206D01*
X972820Y53878D01*
X975310Y54206D01*
X977631Y55167D01*
X979624Y56696D01*
X981153Y58689D01*
X982114Y61010D01*
X982442Y63500D01*
X982114Y65990D01*
X981153Y68311D01*
X979624Y70304D01*
X977631Y71833D01*
X975310Y72794D01*
X972820Y73122D01*
D02*
G37*
G36*
X36830Y240030D02*
X28560D01*
Y231760D01*
X36830D01*
Y240030D01*
D02*
G37*
G36*
X543612Y234950D02*
X534670D01*
Y226008D01*
X536086Y226195D01*
X538589Y227232D01*
X540739Y228881D01*
X542388Y231031D01*
X543425Y233534D01*
X543612Y234950D01*
D02*
G37*
G36*
X532130D02*
X523188D01*
X523375Y233534D01*
X524412Y231031D01*
X526061Y228881D01*
X528211Y227232D01*
X530714Y226195D01*
X532130Y226008D01*
Y234950D01*
D02*
G37*
G36*
X47640Y240030D02*
X39370D01*
Y231760D01*
X47640D01*
Y240030D01*
D02*
G37*
G36*
X36830Y250840D02*
X28560D01*
Y242570D01*
X36830D01*
Y250840D01*
D02*
G37*
G36*
X534670Y246432D02*
Y237490D01*
X543612D01*
X543425Y238906D01*
X542388Y241409D01*
X540739Y243559D01*
X538589Y245208D01*
X536086Y246245D01*
X534670Y246432D01*
D02*
G37*
G36*
X532130D02*
X530714Y246245D01*
X528211Y245208D01*
X526061Y243559D01*
X524412Y241409D01*
X523375Y238906D01*
X523188Y237490D01*
X532130D01*
Y246432D01*
D02*
G37*
G36*
X416690Y246510D02*
X396110D01*
Y225930D01*
X416690D01*
Y246510D01*
D02*
G37*
G36*
X972820Y207742D02*
X970330Y207414D01*
X968009Y206453D01*
X966016Y204924D01*
X964487Y202931D01*
X963526Y200610D01*
X963198Y198120D01*
X963526Y195630D01*
X964487Y193309D01*
X966016Y191316D01*
X968009Y189787D01*
X970330Y188826D01*
X972820Y188498D01*
X975310Y188826D01*
X977631Y189787D01*
X979624Y191316D01*
X981153Y193309D01*
X982114Y195630D01*
X982442Y198120D01*
X982114Y200610D01*
X981153Y202931D01*
X979624Y204924D01*
X977631Y206453D01*
X975310Y207414D01*
X972820Y207742D01*
D02*
G37*
G36*
X38100Y192502D02*
X35610Y192174D01*
X33289Y191213D01*
X31296Y189684D01*
X29767Y187691D01*
X28806Y185370D01*
X28478Y182880D01*
X28806Y180390D01*
X29767Y178069D01*
X31296Y176076D01*
X33289Y174547D01*
X35610Y173586D01*
X38100Y173258D01*
X40590Y173586D01*
X42911Y174547D01*
X44904Y176076D01*
X46433Y178069D01*
X47394Y180390D01*
X47722Y182880D01*
X47394Y185370D01*
X46433Y187691D01*
X44904Y189684D01*
X42911Y191213D01*
X40590Y192174D01*
X38100Y192502D01*
D02*
G37*
G36*
X972820Y182342D02*
X970330Y182014D01*
X968009Y181053D01*
X966016Y179524D01*
X964487Y177531D01*
X963526Y175210D01*
X963198Y172720D01*
X963526Y170230D01*
X964487Y167909D01*
X966016Y165916D01*
X968009Y164387D01*
X970330Y163426D01*
X972820Y163098D01*
X975310Y163426D01*
X977631Y164387D01*
X979624Y165916D01*
X981153Y167909D01*
X982114Y170230D01*
X982442Y172720D01*
X982114Y175210D01*
X981153Y177531D01*
X979624Y179524D01*
X977631Y181053D01*
X975310Y182014D01*
X972820Y182342D01*
D02*
G37*
G36*
X431800Y246599D02*
X429114Y246245D01*
X426611Y245208D01*
X424461Y243559D01*
X422812Y241409D01*
X421775Y238906D01*
X421421Y236220D01*
X421775Y233534D01*
X422812Y231031D01*
X424461Y228881D01*
X426611Y227232D01*
X429114Y226195D01*
X431800Y225841D01*
X434486Y226195D01*
X436989Y227232D01*
X439139Y228881D01*
X440788Y231031D01*
X441825Y233534D01*
X442179Y236220D01*
X441825Y238906D01*
X440788Y241409D01*
X439139Y243559D01*
X436989Y245208D01*
X434486Y246245D01*
X431800Y246599D01*
D02*
G37*
G36*
X508000D02*
X505314Y246245D01*
X502811Y245208D01*
X500661Y243559D01*
X499012Y241409D01*
X497975Y238906D01*
X497621Y236220D01*
X497975Y233534D01*
X499012Y231031D01*
X500661Y228881D01*
X502811Y227232D01*
X505314Y226195D01*
X508000Y225841D01*
X510686Y226195D01*
X513189Y227232D01*
X515339Y228881D01*
X516988Y231031D01*
X518025Y233534D01*
X518379Y236220D01*
X518025Y238906D01*
X516988Y241409D01*
X515339Y243559D01*
X513189Y245208D01*
X510686Y246245D01*
X508000Y246599D01*
D02*
G37*
G36*
X482600D02*
X479914Y246245D01*
X477411Y245208D01*
X475261Y243559D01*
X473612Y241409D01*
X472575Y238906D01*
X472221Y236220D01*
X472575Y233534D01*
X473612Y231031D01*
X475261Y228881D01*
X477411Y227232D01*
X479914Y226195D01*
X482600Y225841D01*
X485286Y226195D01*
X487789Y227232D01*
X489939Y228881D01*
X491588Y231031D01*
X492625Y233534D01*
X492979Y236220D01*
X492625Y238906D01*
X491588Y241409D01*
X489939Y243559D01*
X487789Y245208D01*
X485286Y246245D01*
X482600Y246599D01*
D02*
G37*
G36*
X457200D02*
X454514Y246245D01*
X452011Y245208D01*
X449861Y243559D01*
X448212Y241409D01*
X447175Y238906D01*
X446821Y236220D01*
X447175Y233534D01*
X448212Y231031D01*
X449861Y228881D01*
X452011Y227232D01*
X454514Y226195D01*
X457200Y225841D01*
X459886Y226195D01*
X462389Y227232D01*
X464539Y228881D01*
X466188Y231031D01*
X467225Y233534D01*
X467579Y236220D01*
X467225Y238906D01*
X466188Y241409D01*
X464539Y243559D01*
X462389Y245208D01*
X459886Y246245D01*
X457200Y246599D01*
D02*
G37*
G36*
X464820Y635219D02*
X462134Y634865D01*
X459631Y633828D01*
X457481Y632179D01*
X455832Y630029D01*
X454795Y627526D01*
X454441Y624840D01*
X454795Y622154D01*
X455832Y619651D01*
X457481Y617501D01*
X459631Y615852D01*
X462134Y614815D01*
X464820Y614461D01*
X467506Y614815D01*
X470009Y615852D01*
X472159Y617501D01*
X473808Y619651D01*
X474845Y622154D01*
X475199Y624840D01*
X474845Y627526D01*
X473808Y630029D01*
X472159Y632179D01*
X470009Y633828D01*
X467506Y634865D01*
X464820Y635219D01*
D02*
G37*
G36*
X439420D02*
X436734Y634865D01*
X434231Y633828D01*
X432081Y632179D01*
X430432Y630029D01*
X429395Y627526D01*
X429041Y624840D01*
X429395Y622154D01*
X430432Y619651D01*
X432081Y617501D01*
X434231Y615852D01*
X436734Y614815D01*
X439420Y614461D01*
X442106Y614815D01*
X444609Y615852D01*
X446759Y617501D01*
X448408Y619651D01*
X449445Y622154D01*
X449799Y624840D01*
X449445Y627526D01*
X448408Y630029D01*
X446759Y632179D01*
X444609Y633828D01*
X442106Y634865D01*
X439420Y635219D01*
D02*
G37*
G36*
X414020D02*
X411334Y634865D01*
X408831Y633828D01*
X406681Y632179D01*
X405032Y630029D01*
X403995Y627526D01*
X403641Y624840D01*
X403995Y622154D01*
X405032Y619651D01*
X406681Y617501D01*
X408831Y615852D01*
X411334Y614815D01*
X414020Y614461D01*
X416706Y614815D01*
X419209Y615852D01*
X421359Y617501D01*
X423008Y619651D01*
X424045Y622154D01*
X424399Y624840D01*
X424045Y627526D01*
X423008Y630029D01*
X421359Y632179D01*
X419209Y633828D01*
X416706Y634865D01*
X414020Y635219D01*
D02*
G37*
G36*
X490220D02*
X487534Y634865D01*
X485031Y633828D01*
X482881Y632179D01*
X481232Y630029D01*
X480195Y627526D01*
X479841Y624840D01*
X480195Y622154D01*
X481232Y619651D01*
X482881Y617501D01*
X485031Y615852D01*
X487534Y614815D01*
X490220Y614461D01*
X492906Y614815D01*
X495409Y615852D01*
X497559Y617501D01*
X499208Y619651D01*
X500245Y622154D01*
X500599Y624840D01*
X500245Y627526D01*
X499208Y630029D01*
X497559Y632179D01*
X495409Y633828D01*
X492906Y634865D01*
X490220Y635219D01*
D02*
G37*
G36*
X566420D02*
X563734Y634865D01*
X561231Y633828D01*
X559081Y632179D01*
X557432Y630029D01*
X556395Y627526D01*
X556041Y624840D01*
X556395Y622154D01*
X557432Y619651D01*
X559081Y617501D01*
X561231Y615852D01*
X563734Y614815D01*
X566420Y614461D01*
X569106Y614815D01*
X571609Y615852D01*
X573759Y617501D01*
X575408Y619651D01*
X576445Y622154D01*
X576799Y624840D01*
X576445Y627526D01*
X575408Y630029D01*
X573759Y632179D01*
X571609Y633828D01*
X569106Y634865D01*
X566420Y635219D01*
D02*
G37*
G36*
X541020D02*
X538334Y634865D01*
X535831Y633828D01*
X533681Y632179D01*
X532032Y630029D01*
X530995Y627526D01*
X530641Y624840D01*
X530995Y622154D01*
X532032Y619651D01*
X533681Y617501D01*
X535831Y615852D01*
X538334Y614815D01*
X541020Y614461D01*
X543706Y614815D01*
X546209Y615852D01*
X548359Y617501D01*
X550008Y619651D01*
X551045Y622154D01*
X551399Y624840D01*
X551045Y627526D01*
X550008Y630029D01*
X548359Y632179D01*
X546209Y633828D01*
X543706Y634865D01*
X541020Y635219D01*
D02*
G37*
G36*
X515620D02*
X512934Y634865D01*
X510431Y633828D01*
X508281Y632179D01*
X506632Y630029D01*
X505595Y627526D01*
X505241Y624840D01*
X505595Y622154D01*
X506632Y619651D01*
X508281Y617501D01*
X510431Y615852D01*
X512934Y614815D01*
X515620Y614461D01*
X518306Y614815D01*
X520809Y615852D01*
X522959Y617501D01*
X524608Y619651D01*
X525645Y622154D01*
X525999Y624840D01*
X525645Y627526D01*
X524608Y630029D01*
X522959Y632179D01*
X520809Y633828D01*
X518306Y634865D01*
X515620Y635219D01*
D02*
G37*
G36*
X388620D02*
X385934Y634865D01*
X383431Y633828D01*
X381281Y632179D01*
X379632Y630029D01*
X378595Y627526D01*
X378241Y624840D01*
X378595Y622154D01*
X379632Y619651D01*
X381281Y617501D01*
X383431Y615852D01*
X385934Y614815D01*
X388620Y614461D01*
X391306Y614815D01*
X393809Y615852D01*
X395959Y617501D01*
X397608Y619651D01*
X398645Y622154D01*
X398999Y624840D01*
X398645Y627526D01*
X397608Y630029D01*
X395959Y632179D01*
X393809Y633828D01*
X391306Y634865D01*
X388620Y635219D01*
D02*
G37*
G36*
X39370Y621030D02*
X31185D01*
X31346Y619810D01*
X32307Y617489D01*
X33836Y615496D01*
X35829Y613967D01*
X38150Y613006D01*
X39370Y612845D01*
Y621030D01*
D02*
G37*
G36*
X327790Y614810D02*
X318770D01*
Y605790D01*
X327790D01*
Y614810D01*
D02*
G37*
G36*
X316230D02*
X307210D01*
Y605790D01*
X316230D01*
Y614810D01*
D02*
G37*
G36*
X50095Y621030D02*
X41910D01*
Y612845D01*
X43130Y613006D01*
X45451Y613967D01*
X47444Y615496D01*
X48973Y617489D01*
X49934Y619810D01*
X50095Y621030D01*
D02*
G37*
G36*
X919784Y623570D02*
X910590D01*
Y614376D01*
X912072Y614571D01*
X914635Y615633D01*
X916837Y617323D01*
X918527Y619524D01*
X919589Y622089D01*
X919784Y623570D01*
D02*
G37*
G36*
X908050D02*
X898856D01*
X899051Y622089D01*
X900113Y619524D01*
X901803Y617323D01*
X904005Y615633D01*
X906569Y614571D01*
X908050Y614376D01*
Y623570D01*
D02*
G37*
G36*
X945260Y635380D02*
X924180D01*
Y614300D01*
X945260D01*
Y635380D01*
D02*
G37*
G36*
X222250Y623170D02*
X213561D01*
X213738Y621819D01*
X214750Y619377D01*
X216359Y617279D01*
X218457Y615670D01*
X220899Y614658D01*
X222250Y614481D01*
Y623170D01*
D02*
G37*
G36*
X908050Y635304D02*
X906569Y635109D01*
X904005Y634047D01*
X901803Y632357D01*
X900113Y630155D01*
X899051Y627592D01*
X898856Y626110D01*
X908050D01*
Y635304D01*
D02*
G37*
G36*
X224790Y634399D02*
Y625710D01*
X233479D01*
X233302Y627061D01*
X232290Y629503D01*
X230681Y631601D01*
X228583Y633210D01*
X226141Y634222D01*
X224790Y634399D01*
D02*
G37*
G36*
X222250D02*
X220899Y634222D01*
X218457Y633210D01*
X216359Y631601D01*
X214750Y629503D01*
X213738Y627061D01*
X213561Y625710D01*
X222250D01*
Y634399D01*
D02*
G37*
G36*
X590550Y635052D02*
X589134Y634865D01*
X586631Y633828D01*
X584481Y632179D01*
X582832Y630029D01*
X581795Y627526D01*
X581608Y626110D01*
X590550D01*
Y635052D01*
D02*
G37*
G36*
X972820Y649702D02*
X970330Y649374D01*
X968009Y648413D01*
X966016Y646884D01*
X964487Y644891D01*
X963526Y642570D01*
X963198Y640080D01*
X963526Y637590D01*
X964487Y635269D01*
X966016Y633276D01*
X968009Y631747D01*
X970330Y630786D01*
X972820Y630458D01*
X975310Y630786D01*
X977631Y631747D01*
X979624Y633276D01*
X981153Y635269D01*
X982114Y637590D01*
X982442Y640080D01*
X982114Y642570D01*
X981153Y644891D01*
X979624Y646884D01*
X977631Y648413D01*
X975310Y649374D01*
X972820Y649702D01*
D02*
G37*
G36*
X910590Y635304D02*
Y626110D01*
X919784D01*
X919589Y627592D01*
X918527Y630155D01*
X916837Y632357D01*
X914635Y634047D01*
X912072Y635109D01*
X910590Y635304D01*
D02*
G37*
G36*
X593090Y635052D02*
Y626110D01*
X602032D01*
X601845Y627526D01*
X600808Y630029D01*
X599159Y632179D01*
X597009Y633828D01*
X594506Y634865D01*
X593090Y635052D01*
D02*
G37*
G36*
X41910Y631755D02*
Y623570D01*
X50095D01*
X49934Y624790D01*
X48973Y627111D01*
X47444Y629104D01*
X45451Y630633D01*
X43130Y631594D01*
X41910Y631755D01*
D02*
G37*
G36*
X590550Y623570D02*
X581608D01*
X581795Y622154D01*
X582832Y619651D01*
X584481Y617501D01*
X586631Y615852D01*
X589134Y614815D01*
X590550Y614628D01*
Y623570D01*
D02*
G37*
G36*
X627510Y635130D02*
X606930D01*
Y614550D01*
X627510D01*
Y635130D01*
D02*
G37*
G36*
X233479Y623170D02*
X224790D01*
Y614481D01*
X226141Y614658D01*
X228583Y615670D01*
X230681Y617279D01*
X232290Y619377D01*
X233302Y621819D01*
X233479Y623170D01*
D02*
G37*
G36*
X602032Y623570D02*
X593090D01*
Y614628D01*
X594506Y614815D01*
X597009Y615852D01*
X599159Y617501D01*
X600808Y619651D01*
X601845Y622154D01*
X602032Y623570D01*
D02*
G37*
G36*
X39370Y631755D02*
X38150Y631594D01*
X35829Y630633D01*
X33836Y629104D01*
X32307Y627111D01*
X31346Y624790D01*
X31185Y623570D01*
X39370D01*
Y631755D01*
D02*
G37*
G36*
X342900Y640299D02*
X340214Y639945D01*
X337711Y638908D01*
X335561Y637259D01*
X333912Y635109D01*
X332875Y632606D01*
X332521Y629920D01*
X332875Y627234D01*
X333912Y624731D01*
X335561Y622581D01*
X337711Y620932D01*
X340214Y619895D01*
X342900Y619541D01*
X345586Y619895D01*
X348089Y620932D01*
X350239Y622581D01*
X351888Y624731D01*
X352925Y627234D01*
X353279Y629920D01*
X352925Y632606D01*
X351888Y635109D01*
X350239Y637259D01*
X348089Y638908D01*
X345586Y639945D01*
X342900Y640299D01*
D02*
G37*
G36*
X317500D02*
X314814Y639945D01*
X312311Y638908D01*
X310161Y637259D01*
X308512Y635109D01*
X307475Y632606D01*
X307121Y629920D01*
X307475Y627234D01*
X308512Y624731D01*
X310161Y622581D01*
X312311Y620932D01*
X314814Y619895D01*
X317500Y619541D01*
X320186Y619895D01*
X322689Y620932D01*
X324839Y622581D01*
X326488Y624731D01*
X327525Y627234D01*
X327879Y629920D01*
X327525Y632606D01*
X326488Y635109D01*
X324839Y637259D01*
X322689Y638908D01*
X320186Y639945D01*
X317500Y640299D01*
D02*
G37*
G36*
X972820Y624302D02*
X970330Y623974D01*
X968009Y623013D01*
X966016Y621484D01*
X964487Y619491D01*
X963526Y617170D01*
X963198Y614680D01*
X963526Y612190D01*
X964487Y609869D01*
X966016Y607876D01*
X968009Y606347D01*
X970330Y605386D01*
X972820Y605058D01*
X975310Y605386D01*
X977631Y606347D01*
X979624Y607876D01*
X981153Y609869D01*
X982114Y612190D01*
X982442Y614680D01*
X982114Y617170D01*
X981153Y619491D01*
X979624Y621484D01*
X977631Y623013D01*
X975310Y623974D01*
X972820Y624302D01*
D02*
G37*
G36*
X105810Y538687D02*
X87230D01*
Y520107D01*
X91463D01*
X91968Y517567D01*
X91835Y517512D01*
X89894Y516023D01*
X88405Y514082D01*
X87469Y511823D01*
X87317Y510667D01*
X96520D01*
X105723D01*
X105571Y511823D01*
X104635Y514082D01*
X103146Y516023D01*
X101205Y517512D01*
X101072Y517567D01*
X101577Y520107D01*
X105810D01*
Y538687D01*
D02*
G37*
G36*
X40640Y520162D02*
X38150Y519834D01*
X35829Y518873D01*
X33836Y517344D01*
X32307Y515351D01*
X31346Y513030D01*
X31018Y510540D01*
X31346Y508050D01*
X32307Y505729D01*
X33836Y503736D01*
X35829Y502207D01*
X38150Y501246D01*
X40640Y500918D01*
X43130Y501246D01*
X45451Y502207D01*
X47444Y503736D01*
X48973Y505729D01*
X49934Y508050D01*
X50262Y510540D01*
X49934Y513030D01*
X48973Y515351D01*
X47444Y517344D01*
X45451Y518873D01*
X43130Y519834D01*
X40640Y520162D01*
D02*
G37*
G36*
X95250Y508127D02*
X87317D01*
X87469Y506972D01*
X88405Y504712D01*
X89894Y502772D01*
X91835Y501283D01*
X94095Y500346D01*
X95250Y500194D01*
Y508127D01*
D02*
G37*
G36*
X972820Y537942D02*
X970330Y537614D01*
X968009Y536653D01*
X966016Y535124D01*
X964487Y533131D01*
X963526Y530810D01*
X963198Y528320D01*
X963526Y525830D01*
X964487Y523509D01*
X966016Y521516D01*
X968009Y519987D01*
X970330Y519026D01*
X972820Y518698D01*
X975310Y519026D01*
X977631Y519987D01*
X979624Y521516D01*
X981153Y523509D01*
X982114Y525830D01*
X982442Y528320D01*
X982114Y530810D01*
X981153Y533131D01*
X979624Y535124D01*
X977631Y536653D01*
X975310Y537614D01*
X972820Y537942D01*
D02*
G37*
G36*
X233560Y584480D02*
X213480D01*
Y564400D01*
X233560D01*
Y584480D01*
D02*
G37*
G36*
X50180Y581040D02*
X31100D01*
Y561960D01*
X50180D01*
Y581040D01*
D02*
G37*
G36*
X807720Y635471D02*
X804968Y635109D01*
X802404Y634047D01*
X800203Y632357D01*
X798513Y630155D01*
X797451Y627592D01*
X797089Y624840D01*
X797451Y622089D01*
X798513Y619524D01*
X800203Y617323D01*
X802404Y615633D01*
X803835Y615041D01*
Y603589D01*
X727371Y527125D01*
X498577D01*
X497175Y528527D01*
X495915Y529369D01*
X494428Y529665D01*
X486012D01*
X484525Y529369D01*
X483265Y528527D01*
X481862Y527125D01*
X472440D01*
X470953Y526829D01*
X469693Y525987D01*
X468851Y524727D01*
X468555Y523240D01*
Y503313D01*
X467957Y503065D01*
X466100Y501640D01*
X466004Y501516D01*
X463574Y502522D01*
X463627Y502920D01*
X463321Y505241D01*
X462425Y507403D01*
X461000Y509260D01*
X459143Y510685D01*
X458545Y510933D01*
Y524171D01*
X476589Y542215D01*
X723900D01*
X725387Y542511D01*
X726647Y543353D01*
X785067Y601773D01*
X785909Y603033D01*
X786205Y604520D01*
Y615041D01*
X787635Y615633D01*
X789837Y617323D01*
X791527Y619524D01*
X792589Y622089D01*
X792951Y624840D01*
X792589Y627592D01*
X791527Y630155D01*
X789837Y632357D01*
X787635Y634047D01*
X785071Y635109D01*
X782320Y635471D01*
X779568Y635109D01*
X777004Y634047D01*
X774803Y632357D01*
X773113Y630155D01*
X772051Y627592D01*
X771689Y624840D01*
X772051Y622089D01*
X773113Y619524D01*
X774803Y617323D01*
X777004Y615633D01*
X778435Y615041D01*
Y606129D01*
X722291Y549985D01*
X474980D01*
X473493Y549689D01*
X472233Y548847D01*
X451913Y528527D01*
X448960Y528278D01*
X448385Y528668D01*
Y534331D01*
X468969Y554915D01*
X713740D01*
X715227Y555211D01*
X716487Y556053D01*
X759667Y599233D01*
X760509Y600493D01*
X760805Y601980D01*
Y615041D01*
X762235Y615633D01*
X764437Y617323D01*
X766127Y619524D01*
X767189Y622089D01*
X767551Y624840D01*
X767189Y627592D01*
X766127Y630155D01*
X764437Y632357D01*
X762235Y634047D01*
X759671Y635109D01*
X756920Y635471D01*
X754168Y635109D01*
X751605Y634047D01*
X749403Y632357D01*
X747713Y630155D01*
X746651Y627592D01*
X746289Y624840D01*
X746651Y622089D01*
X747713Y619524D01*
X749403Y617323D01*
X751605Y615633D01*
X753035Y615041D01*
Y603589D01*
X712131Y562685D01*
X694421D01*
X694171Y565225D01*
X694907Y565371D01*
X696167Y566213D01*
X734267Y604313D01*
X735109Y605573D01*
X735405Y607060D01*
Y615041D01*
X736835Y615633D01*
X739037Y617323D01*
X740727Y619524D01*
X741789Y622089D01*
X742151Y624840D01*
X741789Y627592D01*
X740727Y630155D01*
X739037Y632357D01*
X736835Y634047D01*
X734271Y635109D01*
X731520Y635471D01*
X728768Y635109D01*
X726205Y634047D01*
X724003Y632357D01*
X722313Y630155D01*
X721251Y627592D01*
X720889Y624840D01*
X721251Y622089D01*
X722313Y619524D01*
X724003Y617323D01*
X726205Y615633D01*
X727635Y615041D01*
Y608669D01*
X691811Y572845D01*
X676641D01*
X676391Y575385D01*
X677127Y575531D01*
X678387Y576373D01*
X708867Y606853D01*
X709709Y608113D01*
X710005Y609600D01*
Y615041D01*
X711435Y615633D01*
X713637Y617323D01*
X715327Y619524D01*
X716389Y622089D01*
X716751Y624840D01*
X716389Y627592D01*
X715327Y630155D01*
X713637Y632357D01*
X711435Y634047D01*
X708872Y635109D01*
X706120Y635471D01*
X703369Y635109D01*
X700805Y634047D01*
X698603Y632357D01*
X696913Y630155D01*
X695851Y627592D01*
X695489Y624840D01*
X695851Y622089D01*
X696913Y619524D01*
X698603Y617323D01*
X700805Y615633D01*
X702235Y615041D01*
Y611209D01*
X674031Y583005D01*
X661401D01*
X661151Y585545D01*
X661887Y585691D01*
X663147Y586533D01*
X683467Y606853D01*
X684309Y608113D01*
X684605Y609600D01*
Y615041D01*
X686036Y615633D01*
X688237Y617323D01*
X689927Y619524D01*
X690989Y622089D01*
X691351Y624840D01*
X690989Y627592D01*
X689927Y630155D01*
X688237Y632357D01*
X686036Y634047D01*
X683472Y635109D01*
X680720Y635471D01*
X677969Y635109D01*
X675405Y634047D01*
X673203Y632357D01*
X671513Y630155D01*
X670451Y627592D01*
X670089Y624840D01*
X670451Y622089D01*
X671513Y619524D01*
X673203Y617323D01*
X675405Y615633D01*
X676835Y615041D01*
Y611209D01*
X658791Y593165D01*
X643621D01*
X643371Y595705D01*
X644107Y595851D01*
X645367Y596693D01*
X658067Y609393D01*
X658909Y610653D01*
X659205Y612140D01*
Y615041D01*
X660636Y615633D01*
X662837Y617323D01*
X664527Y619524D01*
X665589Y622089D01*
X665951Y624840D01*
X665589Y627592D01*
X664527Y630155D01*
X662837Y632357D01*
X660636Y634047D01*
X658072Y635109D01*
X655320Y635471D01*
X652569Y635109D01*
X650005Y634047D01*
X647803Y632357D01*
X646113Y630155D01*
X645051Y627592D01*
X644689Y624840D01*
X645051Y622089D01*
X646113Y619524D01*
X647803Y617323D01*
X650005Y615633D01*
X650405Y612718D01*
X641011Y603325D01*
X449580D01*
X448093Y603029D01*
X446833Y602187D01*
X386460Y541813D01*
X385861Y542061D01*
X383540Y542367D01*
X381219Y542061D01*
X379057Y541165D01*
X377200Y539740D01*
X375775Y537883D01*
X374879Y535721D01*
X374573Y533400D01*
X374879Y531079D01*
X375775Y528917D01*
X377200Y527060D01*
X379057Y525635D01*
X381219Y524739D01*
X383540Y524433D01*
X385523Y524694D01*
X386632Y523792D01*
X387534Y522683D01*
X387273Y520700D01*
X387579Y518379D01*
X388475Y516217D01*
X389900Y514360D01*
X391757Y512935D01*
X393919Y512039D01*
X396240Y511733D01*
X398561Y512039D01*
X400723Y512935D01*
X401140Y513255D01*
X403415Y513628D01*
X404444Y512726D01*
X405140Y511820D01*
X406997Y510395D01*
X409159Y509499D01*
X411480Y509193D01*
X413801Y509499D01*
X415963Y510395D01*
X417416Y511509D01*
X418981Y511832D01*
X419219D01*
X420784Y511509D01*
X422237Y510395D01*
X424399Y509499D01*
X426720Y509193D01*
X429041Y509499D01*
X431203Y510395D01*
X433060Y511820D01*
X434161Y513253D01*
X435610Y513492D01*
X437059Y513253D01*
X438160Y511820D01*
X440017Y510395D01*
X442179Y509499D01*
X444500Y509193D01*
X445130Y509276D01*
X445960Y508396D01*
X446694Y506920D01*
X445999Y505241D01*
X445693Y502920D01*
X445999Y500599D01*
X446895Y498437D01*
X448320Y496580D01*
X450177Y495155D01*
X452339Y494259D01*
X454660Y493953D01*
X456981Y494259D01*
X459143Y495155D01*
X461000Y496580D01*
X461096Y496704D01*
X463526Y495698D01*
X463473Y495300D01*
X463779Y492979D01*
X464675Y490817D01*
X466100Y488960D01*
X467957Y487535D01*
X470119Y486639D01*
X472440Y486333D01*
X474761Y486639D01*
X476923Y487535D01*
X478780Y488960D01*
X480205Y490817D01*
X481101Y492979D01*
X481407Y495300D01*
X481101Y497621D01*
X480205Y499783D01*
X478780Y501640D01*
X476923Y503065D01*
X476325Y503313D01*
Y519355D01*
X479666D01*
X481411Y516815D01*
X481253Y515620D01*
X481559Y513299D01*
X482455Y511137D01*
X483880Y509280D01*
X485737Y507855D01*
X487899Y506959D01*
X490220Y506653D01*
X492541Y506959D01*
X493139Y507207D01*
X526975Y473371D01*
Y422033D01*
X526377Y421785D01*
X524520Y420360D01*
X523095Y418503D01*
X522199Y416341D01*
X521893Y414020D01*
X522199Y411699D01*
X523095Y409537D01*
X524520Y407680D01*
X526377Y406255D01*
X528539Y405359D01*
X530860Y405053D01*
X533181Y405359D01*
X535343Y406255D01*
X537200Y407680D01*
X538625Y409537D01*
X539521Y411699D01*
X539827Y414020D01*
X539521Y416341D01*
X538625Y418503D01*
X537200Y420360D01*
X535343Y421785D01*
X534745Y422033D01*
Y474980D01*
X534449Y476467D01*
X533607Y477727D01*
X498633Y512701D01*
X498881Y513299D01*
X499187Y515620D01*
X499029Y516815D01*
X500774Y519355D01*
X728980D01*
X730467Y519651D01*
X731727Y520493D01*
X810467Y599233D01*
X811309Y600493D01*
X811605Y601980D01*
Y615041D01*
X813036Y615633D01*
X815237Y617323D01*
X816927Y619524D01*
X817989Y622089D01*
X818351Y624840D01*
X817989Y627592D01*
X816927Y630155D01*
X815237Y632357D01*
X813036Y634047D01*
X810471Y635109D01*
X807720Y635471D01*
D02*
G37*
G36*
X40640Y494762D02*
X38150Y494434D01*
X35829Y493473D01*
X33836Y491944D01*
X32307Y489951D01*
X31346Y487630D01*
X31018Y485140D01*
X31346Y482650D01*
X32307Y480329D01*
X33836Y478336D01*
X35829Y476807D01*
X38150Y475846D01*
X40640Y475518D01*
X43130Y475846D01*
X45451Y476807D01*
X47444Y478336D01*
X48973Y480329D01*
X49934Y482650D01*
X50262Y485140D01*
X49934Y487630D01*
X48973Y489951D01*
X47444Y491944D01*
X45451Y493473D01*
X43130Y494434D01*
X40640Y494762D01*
D02*
G37*
G36*
X982360Y476250D02*
X974090D01*
Y467980D01*
X982360D01*
Y476250D01*
D02*
G37*
G36*
X971550D02*
X963280D01*
Y467980D01*
X971550D01*
Y476250D01*
D02*
G37*
G36*
Y487060D02*
X963280D01*
Y478790D01*
X971550D01*
Y487060D01*
D02*
G37*
G36*
X105723Y508127D02*
X97790D01*
Y500194D01*
X98945Y500346D01*
X101205Y501283D01*
X103146Y502772D01*
X104635Y504712D01*
X105571Y506972D01*
X105723Y508127D01*
D02*
G37*
G36*
X972820Y512542D02*
X970330Y512214D01*
X968009Y511253D01*
X966016Y509724D01*
X964487Y507731D01*
X963526Y505410D01*
X963198Y502920D01*
X963526Y500430D01*
X964487Y498109D01*
X966016Y496116D01*
X968009Y494587D01*
X970330Y493626D01*
X972820Y493298D01*
X975310Y493626D01*
X977631Y494587D01*
X979624Y496116D01*
X981153Y498109D01*
X982114Y500430D01*
X982442Y502920D01*
X982114Y505410D01*
X981153Y507731D01*
X979624Y509724D01*
X977631Y511253D01*
X975310Y512214D01*
X972820Y512542D01*
D02*
G37*
G36*
X982360Y487060D02*
X974090D01*
Y478790D01*
X982360D01*
Y487060D01*
D02*
G37*
G36*
X971550Y588010D02*
X963280D01*
Y579740D01*
X971550D01*
Y588010D01*
D02*
G37*
G36*
X982360Y598820D02*
X974090D01*
Y590550D01*
X982360D01*
Y598820D01*
D02*
G37*
G36*
X354330Y585379D02*
Y577850D01*
X361860D01*
X361721Y578901D01*
X360825Y581063D01*
X359400Y582920D01*
X357543Y584345D01*
X355381Y585241D01*
X354330Y585379D01*
D02*
G37*
G36*
X971550Y598820D02*
X963280D01*
Y590550D01*
X971550D01*
Y598820D01*
D02*
G37*
G36*
X40640Y606522D02*
X38150Y606194D01*
X35829Y605233D01*
X33836Y603704D01*
X32307Y601711D01*
X31346Y599390D01*
X31018Y596900D01*
X31346Y594410D01*
X32307Y592089D01*
X33836Y590096D01*
X35829Y588567D01*
X38150Y587606D01*
X40640Y587278D01*
X43130Y587606D01*
X45451Y588567D01*
X47444Y590096D01*
X48973Y592089D01*
X49934Y594410D01*
X50262Y596900D01*
X49934Y599390D01*
X48973Y601711D01*
X47444Y603704D01*
X45451Y605233D01*
X43130Y606194D01*
X40640Y606522D01*
D02*
G37*
G36*
X982360Y588010D02*
X974090D01*
Y579740D01*
X982360D01*
Y588010D01*
D02*
G37*
G36*
X351790Y585379D02*
X350739Y585241D01*
X348577Y584345D01*
X346720Y582920D01*
X345295Y581063D01*
X344399Y578901D01*
X344260Y577850D01*
X351790D01*
Y585379D01*
D02*
G37*
G36*
X883920Y635471D02*
X881169Y635109D01*
X878605Y634047D01*
X876403Y632357D01*
X874713Y630155D01*
X873651Y627592D01*
X873289Y624840D01*
X873651Y622089D01*
X874713Y619524D01*
X876403Y617323D01*
X878605Y615633D01*
X880035Y615041D01*
Y588349D01*
X864945Y573258D01*
X862405Y574310D01*
Y615041D01*
X863836Y615633D01*
X866037Y617323D01*
X867727Y619524D01*
X868789Y622089D01*
X869151Y624840D01*
X868789Y627592D01*
X867727Y630155D01*
X866037Y632357D01*
X863836Y634047D01*
X861272Y635109D01*
X858520Y635471D01*
X855769Y635109D01*
X853204Y634047D01*
X851003Y632357D01*
X849313Y630155D01*
X848251Y627592D01*
X847889Y624840D01*
X848251Y622089D01*
X849313Y619524D01*
X851003Y617323D01*
X853204Y615633D01*
X854635Y615041D01*
Y573109D01*
X839413Y557886D01*
X837636Y558560D01*
X837005Y559071D01*
Y615041D01*
X838436Y615633D01*
X840637Y617323D01*
X842327Y619524D01*
X843389Y622089D01*
X843751Y624840D01*
X843389Y627592D01*
X842327Y630155D01*
X840637Y632357D01*
X838436Y634047D01*
X835872Y635109D01*
X833120Y635471D01*
X830368Y635109D01*
X827804Y634047D01*
X825603Y632357D01*
X823913Y630155D01*
X822851Y627592D01*
X822489Y624840D01*
X822851Y622089D01*
X823913Y619524D01*
X825603Y617323D01*
X827804Y615633D01*
X829235Y615041D01*
Y560409D01*
X605451Y336625D01*
X490613D01*
X490365Y337223D01*
X488940Y339080D01*
X487083Y340505D01*
X484921Y341401D01*
X482600Y341707D01*
X480279Y341401D01*
X478117Y340505D01*
X476260Y339080D01*
X474835Y337223D01*
X473939Y335061D01*
X473633Y332740D01*
X473939Y330419D01*
X474835Y328257D01*
X476260Y326400D01*
X478117Y324975D01*
X480279Y324079D01*
X481934Y323861D01*
Y321299D01*
X480279Y321081D01*
X478117Y320185D01*
X476260Y318760D01*
X474835Y316903D01*
X473939Y314741D01*
X473633Y312420D01*
X473939Y310099D01*
X474835Y307937D01*
X476260Y306080D01*
X478117Y304655D01*
X480279Y303759D01*
X482600Y303453D01*
X484921Y303759D01*
X487083Y304655D01*
X488940Y306080D01*
X490365Y307937D01*
X490613Y308535D01*
X596629D01*
X597682Y305995D01*
X580051Y288365D01*
X490613D01*
X490365Y288963D01*
X488940Y290820D01*
X487083Y292245D01*
X484921Y293141D01*
X482600Y293447D01*
X480279Y293141D01*
X478117Y292245D01*
X476260Y290820D01*
X474835Y288963D01*
X473939Y286801D01*
X473633Y284480D01*
X473939Y282159D01*
X474835Y279997D01*
X476260Y278140D01*
X478117Y276715D01*
X480279Y275819D01*
X482600Y275513D01*
X484921Y275819D01*
X487083Y276715D01*
X488940Y278140D01*
X490365Y279997D01*
X490613Y280595D01*
X581660D01*
X583147Y280891D01*
X584407Y281733D01*
X886667Y583993D01*
X887509Y585253D01*
X887805Y586740D01*
Y615041D01*
X889236Y615633D01*
X891437Y617323D01*
X893127Y619524D01*
X894189Y622089D01*
X894551Y624840D01*
X894189Y627592D01*
X893127Y630155D01*
X891437Y632357D01*
X889236Y634047D01*
X886672Y635109D01*
X883920Y635471D01*
D02*
G37*
G36*
X361860Y575310D02*
X354330D01*
Y567780D01*
X355381Y567919D01*
X357543Y568815D01*
X359400Y570240D01*
X360825Y572097D01*
X361721Y574259D01*
X361860Y575310D01*
D02*
G37*
G36*
X351790D02*
X344260D01*
X344399Y574259D01*
X345295Y572097D01*
X346720Y570240D01*
X348577Y568815D01*
X350739Y567919D01*
X351790Y567780D01*
Y575310D01*
D02*
G37*
G36*
X342900Y614899D02*
X340214Y614545D01*
X337711Y613508D01*
X335561Y611859D01*
X333912Y609709D01*
X332875Y607206D01*
X332521Y604520D01*
X332875Y601834D01*
X333912Y599331D01*
X335561Y597181D01*
X337711Y595532D01*
X340214Y594495D01*
X342900Y594141D01*
X345586Y594495D01*
X348089Y595532D01*
X350239Y597181D01*
X351888Y599331D01*
X352925Y601834D01*
X353279Y604520D01*
X352925Y607206D01*
X351888Y609709D01*
X350239Y611859D01*
X348089Y613508D01*
X345586Y614545D01*
X342900Y614899D01*
D02*
G37*
G36*
X316230Y603250D02*
X307210D01*
Y594230D01*
X316230D01*
Y603250D01*
D02*
G37*
G36*
X327790D02*
X318770D01*
Y594230D01*
X327790D01*
Y603250D01*
D02*
G37*
%LPD*%
G36*
X461529Y572695D02*
X460793Y572549D01*
X459533Y571707D01*
X423973Y536147D01*
X423131Y534887D01*
X422835Y533400D01*
Y526173D01*
X422237Y525925D01*
X420784Y524811D01*
X419219Y524488D01*
X418981D01*
X417416Y524811D01*
X415963Y525925D01*
X415365Y526173D01*
Y531791D01*
X458809Y575235D01*
X461279D01*
X461529Y572695D01*
D02*
G37*
G36*
X456449Y582855D02*
X455713Y582709D01*
X454453Y581867D01*
X408733Y536147D01*
X407891Y534887D01*
X407595Y533400D01*
Y526173D01*
X406997Y525925D01*
X406580Y525606D01*
X404305Y525232D01*
X403276Y526134D01*
X402580Y527040D01*
X400723Y528465D01*
X400125Y528713D01*
Y531791D01*
X453729Y585395D01*
X456199D01*
X456449Y582855D01*
D02*
G37*
G36*
X466609Y562535D02*
X465873Y562389D01*
X464613Y561547D01*
X441753Y538687D01*
X440911Y537427D01*
X440615Y535940D01*
Y526173D01*
X440017Y525925D01*
X438160Y524500D01*
X437059Y523067D01*
X435610Y522828D01*
X434161Y523067D01*
X433060Y524500D01*
X431203Y525925D01*
X430605Y526173D01*
Y531791D01*
X463889Y565075D01*
X466359D01*
X466609Y562535D01*
D02*
G37*
G36*
X607300Y328224D02*
X607974Y326447D01*
X597831Y316305D01*
X490613D01*
X490365Y316903D01*
X488940Y318760D01*
X487083Y320185D01*
X484921Y321081D01*
X483266Y321299D01*
Y323861D01*
X484921Y324079D01*
X487083Y324975D01*
X488940Y326400D01*
X490365Y328257D01*
X490613Y328855D01*
X606790D01*
X607300Y328224D01*
D02*
G37*
D19*
X353060Y579120D02*
X358140D01*
X350520Y576580D02*
X353060Y579120D01*
X927100Y467360D02*
X972820Y421640D01*
X533400Y231140D02*
Y236220D01*
Y231140D02*
X558800Y205740D01*
X919480D01*
X972820Y259080D01*
X96520Y509397D02*
X113157D01*
X243440Y604520D02*
X317500D01*
X223520Y624440D02*
X243440Y604520D01*
X490220Y515620D02*
X530860Y474980D01*
Y414020D02*
Y474980D01*
X574040Y607060D02*
X591820Y624840D01*
X353060Y576580D02*
Y579120D01*
X113157Y509397D02*
X180340Y576580D01*
X214442Y585750D02*
X232598D01*
X241768Y576580D02*
X350520D01*
X180340D02*
X205272D01*
X214442Y585750D01*
X232598D02*
X241768Y576580D01*
X358140Y579120D02*
X386080Y607060D01*
X574040D01*
X833120Y558800D02*
Y624840D01*
X482600Y332740D02*
X607060D01*
X833120Y558800D01*
X482600Y312420D02*
X599440D01*
X858520Y571500D01*
Y624840D01*
X581660Y284480D02*
X883920Y586740D01*
Y624840D01*
X762000Y441960D02*
X787400Y467360D01*
X927100D01*
X482600Y284480D02*
X581660D01*
X642620Y599440D02*
X655320Y612140D01*
Y624840D01*
X383540Y533400D02*
X449580Y599440D01*
X642620D01*
X396240Y520700D02*
Y533400D01*
X452120Y589280D01*
X660400D01*
X680720Y609600D01*
Y624840D01*
X411480Y518160D02*
Y533400D01*
X457200Y579120D01*
X675640D01*
X706120Y609600D01*
Y624840D01*
X426720Y518160D02*
Y533400D01*
X462280Y568960D01*
X693420D01*
X731520Y607060D01*
Y624840D01*
X444500Y518160D02*
Y535940D01*
X467360Y558800D01*
X713740D01*
X756920Y601980D01*
Y624840D01*
X454660Y502920D02*
Y525780D01*
X474980Y546100D01*
X723900D01*
X782320Y604520D01*
Y624840D01*
X472440Y495300D02*
Y523240D01*
X483472D01*
X486012Y525780D01*
X494428D01*
X496968Y523240D01*
X728980D01*
X807720Y601980D01*
Y624840D01*
X226060Y449580D02*
X353060Y576580D01*
D20*
X38100Y132080D02*
D03*
Y241300D02*
D03*
X40640Y350520D02*
D03*
Y571500D02*
D03*
Y459740D02*
D03*
X972820Y589280D02*
D03*
Y477520D02*
D03*
Y370840D02*
D03*
Y259080D02*
D03*
Y147320D02*
D03*
Y38100D02*
D03*
D21*
X38100Y157480D02*
D03*
Y182880D02*
D03*
Y266700D02*
D03*
Y292100D02*
D03*
X283480Y401320D02*
D03*
X40640Y375920D02*
D03*
Y401320D02*
D03*
Y596900D02*
D03*
Y622300D02*
D03*
Y485140D02*
D03*
Y510540D02*
D03*
X972820Y614680D02*
D03*
Y640080D02*
D03*
Y502920D02*
D03*
Y528320D02*
D03*
Y396240D02*
D03*
Y421640D02*
D03*
Y284480D02*
D03*
Y309880D02*
D03*
Y172720D02*
D03*
Y198120D02*
D03*
Y63500D02*
D03*
Y88900D02*
D03*
D22*
X234680Y401320D02*
D03*
D23*
X223520Y624440D02*
D03*
D24*
Y574440D02*
D03*
D25*
X96520Y509397D02*
D03*
D26*
Y529397D02*
D03*
D27*
X406400Y236220D02*
D03*
X617220Y624840D02*
D03*
X317500Y604520D02*
D03*
D28*
X431800Y236220D02*
D03*
X457200D02*
D03*
X482600D02*
D03*
X508000D02*
D03*
X533400D02*
D03*
X591820Y624840D02*
D03*
X566420D02*
D03*
X541020D02*
D03*
X515620D02*
D03*
X490220D02*
D03*
X464820D02*
D03*
X439420D02*
D03*
X414020D02*
D03*
X388620D02*
D03*
X317500Y629920D02*
D03*
X342900Y604520D02*
D03*
Y629920D02*
D03*
D29*
X807720Y624840D02*
D03*
X909320D02*
D03*
X883920D02*
D03*
X858520D02*
D03*
X833120D02*
D03*
X782320D02*
D03*
X756920D02*
D03*
X731520D02*
D03*
X706120D02*
D03*
X680720D02*
D03*
X655320D02*
D03*
D30*
X934720D02*
D03*
D31*
X490220Y515620D02*
D03*
X530860Y414020D02*
D03*
X353060Y576580D02*
D03*
X482600Y332740D02*
D03*
Y312420D02*
D03*
Y284480D02*
D03*
X762000Y441960D02*
D03*
X383540Y533400D02*
D03*
X396240Y520700D02*
D03*
X411480Y518160D02*
D03*
X426720D02*
D03*
X444500D02*
D03*
X454660Y502920D02*
D03*
X472440Y495300D02*
D03*
X226060Y449580D02*
D03*
M02*
