G04 Layer_Color=3162822*
%FSLAX44Y44*%
%MOMM*%
G71*
G01*
G75*
%ADD10R,1.6000X1.8000*%
G04:AMPARAMS|DCode=11|XSize=2mm|YSize=1.1mm|CornerRadius=0.11mm|HoleSize=0mm|Usage=FLASHONLY|Rotation=0.000|XOffset=0mm|YOffset=0mm|HoleType=Round|Shape=RoundedRectangle|*
%AMROUNDEDRECTD11*
21,1,2.0000,0.8800,0,0,0.0*
21,1,1.7800,1.1000,0,0,0.0*
1,1,0.2200,0.8900,-0.4400*
1,1,0.2200,-0.8900,-0.4400*
1,1,0.2200,-0.8900,0.4400*
1,1,0.2200,0.8900,0.4400*
%
%ADD11ROUNDEDRECTD11*%
%ADD12R,1.8000X1.6000*%
%ADD13R,2.4000X3.3000*%
%ADD14R,2.4000X1.0000*%
%ADD15O,2.2000X0.6000*%
%ADD16O,1.4500X0.6000*%
%ADD17O,1.8000X0.2500*%
%ADD18O,0.2500X1.8000*%
%ADD20R,1.4000X1.4000*%
%ADD21C,1.4000*%
%ADD22P,1.5154X8X22.5*%
%ADD23C,1.5000*%
%ADD24R,1.5000X1.5000*%
%ADD25C,1.3500*%
%ADD26R,1.3500X1.3500*%
%ADD27R,1.5500X1.5500*%
%ADD28C,1.5500*%
%ADD29C,1.6000*%
%ADD30R,1.6000X1.6000*%
%ADD31C,1.2700*%
D10*
X540960Y652780D02*
D03*
X568960D02*
D03*
X515620D02*
D03*
X487620D02*
D03*
X351760Y439420D02*
D03*
X379760D02*
D03*
X331440Y391160D02*
D03*
X359440D02*
D03*
X322580Y210820D02*
D03*
X294580D02*
D03*
X322640Y238760D02*
D03*
X294640D02*
D03*
X322580Y185420D02*
D03*
X294580D02*
D03*
X322356Y264922D02*
D03*
X294356D02*
D03*
X137160Y185420D02*
D03*
X165160D02*
D03*
X137100Y210820D02*
D03*
X165100D02*
D03*
X137100Y299720D02*
D03*
X165100D02*
D03*
X137160Y274320D02*
D03*
X165160D02*
D03*
X877600Y342900D02*
D03*
X849600D02*
D03*
X807466Y345440D02*
D03*
X779465D02*
D03*
X638780Y342900D02*
D03*
X666780D02*
D03*
X571500D02*
D03*
X599500D02*
D03*
X571500Y383540D02*
D03*
X599500D02*
D03*
X640020Y426720D02*
D03*
X668020D02*
D03*
X571440D02*
D03*
X599440D02*
D03*
X640020Y383540D02*
D03*
X668020D02*
D03*
X807211Y426720D02*
D03*
X779211D02*
D03*
X878840Y424180D02*
D03*
X850840D02*
D03*
X807525Y386080D02*
D03*
X779526D02*
D03*
X877600Y383540D02*
D03*
X849600D02*
D03*
D11*
X310380Y326007D02*
D03*
Y363008D02*
D03*
X373380D02*
D03*
Y327007D02*
D03*
D12*
X271780Y364520D02*
D03*
Y336520D02*
D03*
X243840Y337262D02*
D03*
Y365261D02*
D03*
X218440Y336763D02*
D03*
Y364763D02*
D03*
X508000Y305448D02*
D03*
Y333447D02*
D03*
D13*
X153460Y599440D02*
D03*
D14*
X95460Y576440D02*
D03*
Y599440D02*
D03*
Y622440D02*
D03*
D15*
X255140Y185420D02*
D03*
Y198120D02*
D03*
Y210820D02*
D03*
Y223520D02*
D03*
Y236220D02*
D03*
Y248920D02*
D03*
Y261620D02*
D03*
X207140Y185420D02*
D03*
Y198120D02*
D03*
Y210820D02*
D03*
Y223520D02*
D03*
Y236220D02*
D03*
Y248920D02*
D03*
Y261620D02*
D03*
D16*
X746760Y345440D02*
D03*
Y358140D02*
D03*
Y370840D02*
D03*
Y383540D02*
D03*
Y396240D02*
D03*
Y408940D02*
D03*
Y421640D02*
D03*
X692260Y345440D02*
D03*
Y358140D02*
D03*
Y370840D02*
D03*
Y383540D02*
D03*
Y396240D02*
D03*
Y408940D02*
D03*
Y421640D02*
D03*
D17*
X421780Y423740D02*
D03*
Y418740D02*
D03*
Y413740D02*
D03*
Y408740D02*
D03*
Y403740D02*
D03*
Y398740D02*
D03*
Y393740D02*
D03*
Y388740D02*
D03*
Y383740D02*
D03*
Y378740D02*
D03*
Y373740D02*
D03*
Y368740D02*
D03*
X502780D02*
D03*
Y373740D02*
D03*
Y378740D02*
D03*
Y383740D02*
D03*
Y388740D02*
D03*
Y393740D02*
D03*
Y398740D02*
D03*
Y403740D02*
D03*
Y408740D02*
D03*
Y413740D02*
D03*
Y418740D02*
D03*
Y423740D02*
D03*
D18*
X434780Y355740D02*
D03*
X439780D02*
D03*
X444780D02*
D03*
X449780D02*
D03*
X454780D02*
D03*
X459780D02*
D03*
X464780D02*
D03*
X469780D02*
D03*
X474780D02*
D03*
X479780D02*
D03*
X484780D02*
D03*
X489780D02*
D03*
Y436740D02*
D03*
X484780D02*
D03*
X479780D02*
D03*
X474780D02*
D03*
X469780D02*
D03*
X464780D02*
D03*
X459780D02*
D03*
X454780D02*
D03*
X449780D02*
D03*
X444780D02*
D03*
X439780D02*
D03*
X434780D02*
D03*
D20*
X38100Y132080D02*
D03*
Y241300D02*
D03*
X40640Y350520D02*
D03*
Y571500D02*
D03*
Y459740D02*
D03*
X972820Y589280D02*
D03*
Y477520D02*
D03*
Y370840D02*
D03*
Y259080D02*
D03*
Y147320D02*
D03*
Y38100D02*
D03*
D21*
X38100Y157480D02*
D03*
Y182880D02*
D03*
Y266700D02*
D03*
Y292100D02*
D03*
X283480Y401320D02*
D03*
X40640Y375920D02*
D03*
Y401320D02*
D03*
Y596900D02*
D03*
Y622300D02*
D03*
Y485140D02*
D03*
Y510540D02*
D03*
X972820Y614680D02*
D03*
Y640080D02*
D03*
Y502920D02*
D03*
Y528320D02*
D03*
Y396240D02*
D03*
Y421640D02*
D03*
Y284480D02*
D03*
Y309880D02*
D03*
Y172720D02*
D03*
Y198120D02*
D03*
Y63500D02*
D03*
Y88900D02*
D03*
D22*
X234680Y401320D02*
D03*
D23*
X223520Y624440D02*
D03*
D24*
Y574440D02*
D03*
D25*
X96520Y509397D02*
D03*
D26*
Y529397D02*
D03*
D27*
X406400Y236220D02*
D03*
X617220Y624840D02*
D03*
X317500Y604520D02*
D03*
D28*
X431800Y236220D02*
D03*
X457200D02*
D03*
X482600D02*
D03*
X508000D02*
D03*
X533400D02*
D03*
X591820Y624840D02*
D03*
X566420D02*
D03*
X541020D02*
D03*
X515620D02*
D03*
X490220D02*
D03*
X464820D02*
D03*
X439420D02*
D03*
X414020D02*
D03*
X388620D02*
D03*
X317500Y629920D02*
D03*
X342900Y604520D02*
D03*
Y629920D02*
D03*
D29*
X807720Y624840D02*
D03*
X909320D02*
D03*
X883920D02*
D03*
X858520D02*
D03*
X833120D02*
D03*
X782320D02*
D03*
X756920D02*
D03*
X731520D02*
D03*
X706120D02*
D03*
X680720D02*
D03*
X655320D02*
D03*
D30*
X934720D02*
D03*
D31*
X490220Y515620D02*
D03*
X530860Y414020D02*
D03*
X353060Y576580D02*
D03*
X482600Y332740D02*
D03*
Y312420D02*
D03*
Y284480D02*
D03*
X762000Y441960D02*
D03*
X383540Y533400D02*
D03*
X396240Y520700D02*
D03*
X411480Y518160D02*
D03*
X426720D02*
D03*
X444500D02*
D03*
X454660Y502920D02*
D03*
X472440Y495300D02*
D03*
X226060Y449580D02*
D03*
M02*
